<?xml version="1.0" standalone="no"?>
<!DOCTYPE svg PUBLIC "-//W3C//DTD SVG 1.1//EN" "http://www.w3.org/Graphics/SVG/1.1/DTD/svg11.dtd" >
<svg xmlns="http://www.w3.org/2000/svg">
<metadata></metadata>
<defs>
<font id="bernhard_gothic_bqregular" horiz-adv-x="468" >
<font-face units-per-em="2048" ascent="1638" descent="-410" />
<missing-glyph horiz-adv-x="500" />
<glyph horiz-adv-x="0" />
<glyph horiz-adv-x="682" />
<glyph d="M-141 1165l65 43l176 -254l170 256l68 -43l-184 -299h-109z" />
<glyph unicode="&#xd;" />
<glyph horiz-adv-x="256" d="M-252 0l703 1446h65l-702 -1446h-66z" />
<glyph horiz-adv-x="811" d="M23 647v86h122v377q0 92 7.5 184t54.5 174q25 43 55.5 69t61 39t58.5 17t46 4t45 -4t56.5 -17t58 -39t49.5 -71q12 -29 16 -52t9 -34l-91 -18q0 4 -4 25.5t-14 39.5q-4 8 -13.5 21.5t-23.5 27t-35.5 23.5t-48.5 10q-53 0 -94 -34q-35 -29 -52.5 -69t-25.5 -85t-10 -91 t-2 -85v-412h221v-86h-221q0 -326 6 -647h-113q4 162 4 322.5v324.5h-122zM545 1116q2 39 28.5 65.5t65.5 26.5t65.5 -27.5t26.5 -66.5t-27.5 -65.5t-66.5 -26.5q-25 2 -41.5 12.5t-24.5 16.5q-10 12 -18 29.5t-8 35.5zM580 0q6 119 6 238v239q0 156 -6 309h114 q-2 -63 -3 -125.5t-1 -125.5v-273q0 -131 6 -262h-116z" />
<glyph horiz-adv-x="811" d="M23 647v86h122v377q0 92 7.5 184t54.5 174q25 43 55.5 69t61 39t58.5 17t46 4t45 -4t56.5 -17t58 -39t49.5 -71q12 -29 16 -52t9 -34l-91 -18q0 4 -4 25.5t-14 39.5q-4 8 -13.5 21.5t-23.5 27t-35.5 23.5t-48.5 10q-53 0 -94 -34q-35 -29 -52.5 -69t-25.5 -85t-10 -91 t-2 -85v-412h221v-86h-221q0 -326 6 -647h-113q4 162 4 322.5v324.5h-122zM580 0q6 150 6 301v903q0 135 -6 271h116q-6 -147 -6 -281v-954q0 -121 6 -240h-116z" />
<glyph unicode=" " />
<glyph unicode="!" d="M184 76q0 41 28 66.5t64 25.5q41 0 67 -27.5t26 -66.5t-28 -64.5t-65 -25.5q-27 0 -43 10t-22 16q-27 27 -27 66zM193 1446h135l-15 -1088h-90z" />
<glyph unicode="&#x22;" horiz-adv-x="811" d="M168 1434v37.5t31 50.5q18 12 39 12q14 0 34 -12q18 -10 22.5 -26.5t6.5 -35.5l-57 -516h-29zM510 1434q-2 27 0 46t25 38q14 10 25 13t20 3q47 0 61 -47q2 -10 2 -17.5v-9.5l-57 -516h-29z" />
<glyph unicode="#" horiz-adv-x="1366" d="M156 553v61h323l35 258h-309v62h315l76 512h61l-71 -512h266l74 512h61l-72 -512h295v-62h-301l-37 -258h291v-61h-297l-80 -553h-63l80 553h-266l-80 -553h-62l78 553h-317zM543 614h266l37 258h-268z" />
<glyph unicode="$" horiz-adv-x="1024" d="M16 195l68 67q33 -35 61.5 -59.5t71.5 -50.5q82 -47 147.5 -61.5t102.5 -18.5v581q-31 8 -62.5 14.5t-62.5 16.5q-61 18 -115.5 44t-94.5 64.5t-62.5 92t-22.5 125.5q0 129 75 223t193 135q16 6 30.5 9t31 6t38 6.5t52.5 5.5v200h84l2 -202q35 -6 76 -14.5t87 -29 t96 -56.5t103 -95l-65 -63q-12 14 -24.5 26.5l-24.5 24.5q-16 14 -61.5 46t-110.5 50q-18 6 -38 9t-38 7v-563q37 -10 73 -18t70 -19q12 -4 41 -13t63 -27.5t69.5 -46t60.5 -66.5q14 -23 30.5 -68t16.5 -110q0 -123 -66.5 -214.5t-177.5 -134.5q-47 -18 -90 -26t-90 -12 v-269h-86v269q-41 4 -107.5 15t-156.5 56q-14 8 -42 23.5t-61 42.5q-29 23 -44 38zM141 1012q0 -14 3 -35t12.5 -45.5t28 -49t48.5 -44.5q39 -29 90.5 -45.5t143.5 -38.5v546q-12 0 -38 -2t-56 -10q-100 -27 -166 -98.5t-66 -177.5zM553 72q27 4 87 15t126 56 q39 27 60.5 57.5t32.5 60.5t14.5 56.5t3.5 44.5q0 61 -18.5 101.5t-45.5 67t-55.5 40t-48.5 21.5q-47 16 -78 24.5t-78 16.5v-561z" />
<glyph unicode="%" horiz-adv-x="1792" d="M61 928q0 51 6.5 107.5t21.5 109.5t42 102t68 84q16 14 57 37t102 27q20 0 53 -3t70 -17.5t74 -43t68 -80.5q29 -47 52 -130t23 -212q0 -18 -1 -59t-11 -92q-16 -92 -64.5 -174t-144.5 -115q-10 -4 -36.5 -10t-59.5 -6q-12 0 -34.5 2t-50.5 10t-57.5 24.5t-56.5 42.5 q-47 47 -71.5 112t-36 124t-12.5 104.5t-1 55.5zM139 899q0 -35 6.5 -83t20.5 -100t41 -93q6 -12 20.5 -28.5t35 -32t50 -26t66.5 -10.5q16 0 50 6.5t69 30.5q39 29 63.5 72t37.5 92t17.5 99.5t4.5 93.5q0 8 -1.5 42.5t-8.5 81t-22.5 97.5t-43.5 90q-23 33 -48.5 51 t-50 26.5t-47.5 10.5t-37 0q-10 0 -35.5 -6t-54.5 -23q-53 -35 -93 -122t-40 -228v-41zM522 0l652 1368h88l-656 -1368h-84zM1090 453q0 51 6 107t21.5 110.5t42 102.5t69.5 83q16 14 57 37t100 27q20 2 53.5 -1.5t70 -17.5t73.5 -44t68 -81q29 -47 53.5 -130t24.5 -212 q0 -18 -2.5 -59t-12.5 -90q-16 -94 -64 -176t-143 -115q-10 -4 -36.5 -10.5t-61.5 -6.5q-12 0 -34.5 2.5t-50.5 10.5t-57.5 24.5t-56.5 42.5q-47 47 -71.5 111.5t-34.5 124t-12 104.5t-2 56zM1169 424q0 -35 6.5 -83t19.5 -100.5t40 -90.5q8 -12 21.5 -29t35 -32t50 -26.5 t67.5 -11.5q16 0 49 6t70 33q39 29 62.5 72t36.5 92t17.5 99t4.5 93q0 6 -1 41t-7.5 82t-21.5 97.5t-44 91.5q-8 10 -23.5 26.5t-38 30.5t-52 23.5t-68.5 7.5q-12 -2 -38 -8.5t-55 -22.5q-53 -35 -92 -121t-39 -229v-41z" />
<glyph unicode="&#x26;" horiz-adv-x="1622" d="M84 434q0 55 9 95t18 61q6 20 22.5 52t45 64.5t70.5 63.5t101 49q47 14 86 16.5t86 2.5q-20 23 -50 75t-30 136q0 16 5.5 56t27.5 81q10 18 31.5 44.5t56.5 51.5t82 42t109 17q74 0 130 -22.5t96 -53t64.5 -63.5t38.5 -53l-77 -55q-10 12 -31 37.5t-53.5 50t-75.5 44 t-101 19.5q-84 -2 -142 -49t-60 -133q2 -35 9 -62.5t11 -39.5q25 -63 64 -113.5t80 -104.5q-35 4 -70 7.5t-70 3.5q-23 0 -43 -1t-43 -3q-78 -8 -142.5 -35t-107.5 -99q-14 -20 -30.5 -63t-16.5 -109q0 -25 8.5 -77t43.5 -107q33 -53 81 -88t104 -56.5t115.5 -30.5t118.5 -9 q129 0 216 38t126 68q10 10 27.5 26.5t36.5 45.5q23 33 30 60.5t15 66.5h-442l18 90h432q0 49 -2 79t-4 52.5t-6 42t-8 47.5h108q8 -111 12 -221h52h45.5t52.5 4t50.5 13.5t39.5 25.5q23 23 28 62.5t1 105.5l92 6q2 -20 4 -40.5t2 -43.5q0 -78 -25.5 -116.5t-54.5 -59.5 q-47 -35 -102.5 -42t-112.5 -7h-78q-2 -16 -6 -44t-16 -61.5t-32.5 -70.5t-57.5 -70q-25 -25 -66 -51.5t-97 -49t-128 -36.5t-158 -14q-29 0 -95.5 4t-143.5 30q-145 47 -234.5 155t-89.5 263z" />
<glyph unicode="'" horiz-adv-x="425" d="M145 1462q0 8 2.5 20.5t10.5 24t22.5 19.5t36.5 8q4 0 14.5 -1t22.5 -11q16 -10 20.5 -26.5t6.5 -35.5l-58 -516h-28l-48 490q0 8 -1 14t-1 14z" />
<glyph unicode="(" horiz-adv-x="598" d="M145 666q0 25 2.5 75t11.5 113.5t26.5 137t47.5 147.5q10 29 39 86t76 123q14 18 26.5 34.5t29 35t38 40t52.5 51.5l65 -69q-33 -33 -60.5 -62.5t-56.5 -66.5q-31 -41 -65.5 -100.5t-62 -138.5t-46 -179t-18.5 -225q0 -43 5 -122t27.5 -175.5t70.5 -205t134 -208.5 q16 -23 36 -42l40 -38l-69 -70q-35 35 -66 69t-59 75q-78 106 -122 214.5t-66.5 204t-29 173.5t-6.5 123z" />
<glyph unicode=")" horiz-adv-x="598" d="M39 1440l70 69q35 -35 64.5 -68.5t59.5 -74.5q76 -106 120 -215t67.5 -205t30 -173t6.5 -122q0 -27 -2 -76t-11.5 -112.5t-27 -137t-47.5 -147.5q-31 -78 -64 -130t-51 -79q-45 -59 -86 -102t-59 -60l-68 70q35 33 62.5 62.5t56.5 66.5q31 41 65.5 100.5t62 138.5t46 179 t18.5 225q0 43 -5 122t-27.5 177.5t-71.5 206t-135 209.5q-16 20 -36 38.5t-38 37.5z" />
<glyph unicode="*" horiz-adv-x="641" d="M12 1192l47 129l230 -127l-41 256h131l-37 -256l227 123l43 -131l-260 -45l201 -166l-98 -88l-138 221l-145 -219l-98 86l202 168z" />
<glyph unicode="+" horiz-adv-x="1366" d="M82 567v60h573v565h62v-565h565v-60h-565v-567h-62v567h-573z" />
<glyph unicode="," horiz-adv-x="382" d="M33 -211l137 426l131 -49l-182 -410z" />
<glyph unicode="-" horiz-adv-x="598" d="M59 311v109h449v-109h-449z" />
<glyph unicode="." horiz-adv-x="382" d="M96 82q0 41 29 69.5t70 28.5t69.5 -29.5t28.5 -70.5t-28.5 -69.5t-69.5 -28.5q-18 2 -37 9t-33 21q-8 8 -18.5 24.5t-10.5 45.5z" />
<glyph unicode="/" horiz-adv-x="854" d="M-70 -205l785 1651h98l-782 -1651h-101z" />
<glyph unicode="0" horiz-adv-x="1110" d="M74 618.5v49.5q0 254 62.5 405.5t150.5 224.5q14 12 37.5 28.5t56.5 32t75 26t93 10.5q10 0 31.5 -1t50.5 -5q33 -6 82 -22.5t108 -66.5q16 -16 38 -36.5t50 -61.5q45 -70 71 -151.5t37 -157.5t13 -132t2 -75q0 -10 -1 -48t-6 -91t-17.5 -119t-37 -130.5t-63.5 -125.5 t-94 -106q-31 -25 -94.5 -58t-165.5 -33q-106 0 -197 45q-74 37 -123 97.5t-80.5 129t-48 140.5t-23.5 131.5t-7 100zM172 688q0 -14 1 -54t6 -94.5t16.5 -114.5t33.5 -118q10 -29 27.5 -59.5t36.5 -52.5q12 -16 34.5 -39t54.5 -43.5t76 -35t99 -14.5q27 0 83 11.5t116 58.5 q23 18 38 37.5t19 26.5q23 29 42 68.5t40 111.5q14 51 26.5 122.5t12.5 190.5q0 106 -18.5 224t-71.5 210q-10 18 -34 51t-61.5 64t-90.5 51.5t-123 16.5q-47 -4 -84 -17.5t-65 -31t-46 -36t-31 -32.5q-16 -16 -37.5 -50t-42.5 -87q-12 -29 -24 -73t-23 -116q-2 -20 -6 -68 t-4 -108z" />
<glyph unicode="1" horiz-adv-x="1110" d="M500 0v1368h102v-1368h-102z" />
<glyph unicode="2" horiz-adv-x="1110" d="M59 1016q12 41 22.5 72.5t31.5 68.5q16 29 48 69t81 75.5t117.5 61.5t158.5 26q45 0 89 -7.5t85 -23.5q117 -43 182.5 -141.5t65.5 -223.5q0 -25 -5 -68.5t-26 -103.5q-10 -35 -26.5 -69.5t-41 -73.5t-59 -85t-84.5 -101q-53 -61 -101 -111.5t-96 -97.5t-99.5 -93.5 t-112.5 -99.5l712 4v-94h-935q37 35 73.5 68.5t75.5 68.5q68 61 124 111.5t106.5 100.5t100.5 105.5t109 127.5q74 90 127.5 192.5t53.5 224.5q0 16 -5.5 63.5t-31.5 94.5q-41 74 -120 113t-159 39q-18 0 -44.5 -3t-58.5 -12.5t-68 -29t-70 -50.5q-39 -35 -72 -88t-57 -157z " />
<glyph unicode="3" horiz-adv-x="1110" d="M29 324l96 32q10 -37 21.5 -68.5t33.5 -66.5q53 -84 141.5 -123t186.5 -39q66 0 119 14.5t93 36t67.5 47t41.5 46.5q29 39 43.5 90t14.5 98q0 10 -3 38t-14 60q-33 90 -128 141.5t-275 67.5q-12 0 -12 11q2 0 2 2l2 2q8 4 15 6t18 6q10 4 19 7t19 7q12 6 38 17.5t55.5 30 t60.5 45t57 61.5q16 20 21.5 30.5t11.5 24.5q12 29 15.5 58.5t3.5 40.5q0 14 -4.5 46.5t-20.5 69.5q-23 51 -56.5 81t-69.5 44.5t-68.5 17.5t-51.5 3q-61 0 -108 -18.5t-79 -45t-52.5 -55.5t-30.5 -47q-16 -31 -21.5 -51.5t-9.5 -34.5l-86 39q4 12 19.5 50t40.5 77 q14 23 39.5 52.5t65.5 57t94.5 46t125.5 18.5q14 0 40 -2t58.5 -9.5t69.5 -21.5t72 -41q41 -31 69 -76q18 -27 39 -72t21 -120q0 -55 -13.5 -98.5t-32 -75t-39 -54t-34.5 -34.5q-31 -25 -72 -50q16 -4 60.5 -20t91.5 -51q16 -12 40.5 -36t46 -58.5t37 -81.5t15.5 -107 q0 -23 -6 -65.5t-29 -96.5q-18 -41 -52 -85t-88 -81.5t-131 -62.5t-181 -25q-94 0 -165 22.5t-122 56.5t-85 73t-52 72q-18 31 -28.5 61.5t-20.5 65.5z" />
<glyph unicode="4" horiz-adv-x="1110" d="M23 344q35 57 70.5 112.5t68.5 114.5q57 106 102 214t77 203t51.5 168t27.5 110q10 45 18 90t15 92l106 -49q-41 -160 -84 -308.5t-106 -299.5q-23 -55 -43.5 -99.5t-42 -84.5t-46 -81t-55.5 -90h553v660h99v-660h204v-92h-202v-383h-99v383h-714z" />
<glyph unicode="5" horiz-adv-x="1110" d="M20 182l84 68q18 -29 27.5 -41t24.5 -27q37 -41 83 -64.5t89 -35.5t77.5 -15.5t51.5 -3.5q14 0 44.5 3.5t67.5 12.5t79 25.5t81 47.5q53 39 84 87t46 94t19.5 85t4.5 59q0 23 -6.5 71t-30.5 103q-33 70 -81 111t-99.5 61.5t-95.5 25.5t-66 5q-35 0 -68 -4t-43 -6 q-39 -8 -68.5 -17.5t-55 -21.5t-51 -26.5t-54.5 -33.5q-12 -6 -17 3v2q0 4 3 8q10 35 19 68.5t19 68.5q20 72 39 153.5t35 163.5q8 43 14.5 82t10.5 78h637l-9 -94h-550q-10 -47 -18.5 -91t-18.5 -91q-12 -51 -24.5 -100.5t-22.5 -100.5q29 14 53 23q18 6 65 16t107 10 q25 0 85 -7t130 -38q127 -55 193.5 -168t66.5 -250q0 -23 -3 -59.5t-15.5 -81.5t-37 -95t-67.5 -98q-20 -25 -55 -53t-84 -55t-114.5 -44.5t-147.5 -17.5q-14 0 -43 1.5t-65 7.5t-77 17t-82 34q-14 8 -42.5 25.5t-61.5 48.5q-18 16 -33.5 34.5t-32.5 36.5z" />
<glyph unicode="6" horiz-adv-x="1110" d="M94 475q0 94 23.5 187.5t62.5 182.5t88 172t103 159q39 57 84 120l141 185l72 -60q-41 -49 -90.5 -115.5t-100.5 -137t-97 -140.5t-77 -127q-23 -43 -43 -87t-39 -89q31 31 54.5 49.5t60.5 40.5q31 16 95.5 42t156.5 26q20 0 58 -3t84 -17.5t96.5 -41t93.5 -73.5 q39 -43 62.5 -87.5t34.5 -84t14 -73.5t3 -54q0 -18 -2 -50t-11 -72t-27.5 -84t-51.5 -85q-18 -25 -50 -55.5t-78 -58.5t-108.5 -46t-142.5 -18q-27 0 -76 6t-112 30q-41 16 -90 49t-91 87.5t-71 133.5t-29 189zM195 424q0 -16 2 -41t9 -54.5t22.5 -63.5t43.5 -66 q14 -18 40 -41t63 -43.5t85 -34.5t109 -14q20 0 66.5 5t99.5 29q102 45 155.5 136.5t53.5 201.5q0 51 -11 93t-26.5 74t-33 55.5t-29.5 35.5q-31 33 -99.5 69t-183.5 32q-47 -4 -85 -13.5t-54 -15.5q-31 -12 -70 -34.5t-73.5 -63.5t-59 -100.5t-24.5 -145.5z" />
<glyph unicode="7" horiz-adv-x="1110" d="M104 1278v92h922l-608 -1407h-125l596 1315h-785z" />
<glyph unicode="8" horiz-adv-x="1110" d="M78 403q0 70 18.5 125.5t45 96.5t56 68.5t50.5 41.5q25 16 48 28.5t73 33.5q-29 14 -45.5 26.5t-38.5 34.5q-86 84 -86 209q0 29 10 83t59 116q37 45 80 71.5t83 40t75 16.5t53 3q70 0 134.5 -22.5t114.5 -64.5t80 -102.5t30 -134.5q0 -12 -3.5 -40.5t-15.5 -63.5 q-14 -41 -34.5 -70t-42 -50.5t-40 -35.5t-30.5 -22q92 -35 147 -83.5t86 -100.5t41 -104t10 -91q0 -96 -39 -185q-18 -37 -51 -80t-86 -80.5t-129 -62t-176 -24.5q-102 0 -179 27.5t-131.5 67.5t-88 85t-47.5 80q-10 23 -20.5 63.5t-10.5 99.5zM178 401q0 -16 4 -55t23 -84 q14 -33 40.5 -67.5t68.5 -64.5t102.5 -48.5t144.5 -18.5q18 0 59.5 4.5t90.5 20.5t98 50t84 95q27 51 33 95.5t6 64.5q0 66 -18.5 116t-28.5 69q-53 94 -149.5 134t-198.5 36q-55 -2 -97.5 -14.5t-58.5 -20.5q-94 -41 -148.5 -124t-54.5 -188zM293 1073q0 -10 2 -29.5t8 -44 t19.5 -51t37.5 -47.5q23 -20 72 -45t127 -25t128 26t73 48q20 20 31.5 46t17.5 49.5t7 42t1 26.5q0 10 -2 31.5t-10 47.5t-23.5 53.5t-42.5 49.5q-39 33 -95 47.5t-105 12.5q-66 -4 -125.5 -33t-91.5 -90q-8 -12 -18.5 -43t-10.5 -72z" />
<glyph unicode="9" horiz-adv-x="1110" d="M70 926q0 18 2 50t11 70.5t27.5 83t51.5 87.5q18 25 50 54t79 57t108.5 46.5t141.5 18.5q29 0 78 -5.5t110 -31.5q41 -16 90 -49t92 -86.5t72 -132t29 -189.5q0 -96 -23.5 -189.5t-62.5 -182.5t-89.5 -172t-101.5 -158q-23 -31 -43 -61t-43 -60q-35 -47 -69.5 -92 t-69.5 -93l-74 60q41 49 91.5 115.5t101.5 137t96 140.5t76 127q25 43 44 87t38 89q-29 -31 -52.5 -49t-62.5 -41q-31 -16 -94.5 -40.5t-157.5 -24.5q-20 0 -57 3t-83 16t-96.5 40t-93.5 74q-41 43 -64.5 87t-34.5 84t-14 73.5t-3 56.5zM162 934q0 -49 10 -91t25.5 -75 t33 -56.5t29.5 -35.5q16 -16 41 -34.5t60.5 -34t81 -24.5t100.5 -5q47 2 85 12t54 16q31 10 70 34t73.5 63.5t59 100t24.5 144.5q0 14 -1 40t-9 56.5t-23.5 64.5t-41.5 67q-14 18 -40 40.5t-63 42t-85 34t-109 14.5q-23 0 -69 -5.5t-99 -27.5q-100 -47 -153.5 -138.5 t-53.5 -201.5z" />
<glyph unicode=":" d="M178 80q0 41 29 70.5t69 29.5q41 0 70 -29.5t29 -70.5t-29 -69.5t-70 -28.5q-40 -1 -69 28q-8 8 -18.5 24.5t-10.5 45.5zM178 649q0 41 29 70t69 29q41 0 70 -30t29 -71t-29 -69.5t-70 -28.5q-40 0 -71 31q-6 6 -16.5 23.5t-10.5 45.5z" />
<glyph unicode=";" d="M121 -211l137 424l131 -49l-184 -408zM213 647q0 41 28.5 69.5t69.5 28.5q43 0 71 -29.5t28 -68.5q0 -43 -29 -70.5t-70 -27.5q-40 0 -69 29q-8 8 -18.5 24t-10.5 45z" />
<glyph unicode="&#x3c;" horiz-adv-x="1366" d="M0 680v94l1366 678v-63l-1327 -660l1327 -672v-63z" />
<glyph unicode="=" horiz-adv-x="1366" d="M2 387v59h1362v-59h-1362zM2 750v59h1362v-59h-1362z" />
<glyph unicode="&#x3e;" horiz-adv-x="1366" d="M0 -6v63l1327 672l-1327 660v63l1366 -678v-94z" />
<glyph unicode="?" horiz-adv-x="854" d="M90 1225q6 12 15.5 35.5t27 50t42 54.5t61.5 50q29 18 77.5 35.5t126.5 17.5q18 0 60.5 -3t91.5 -21q27 -10 62.5 -32.5t68.5 -60.5t56.5 -93.5t23.5 -131.5q0 -51 -15.5 -113.5t-68.5 -154.5q-16 -27 -41 -64.5t-68 -88.5q-29 -35 -59.5 -69t-63.5 -69v-215h-106l2 230 q25 29 50.5 57.5t49.5 56.5q4 4 23.5 28t44 56.5t49.5 71.5t43 76q10 23 29.5 73t19.5 121q0 12 -3 39t-13 62q-29 78 -98.5 114.5t-147.5 36.5q-66 0 -111 -21.5t-74.5 -52t-46 -62.5t-26.5 -50zM342 76q0 41 27.5 66.5t66.5 25.5t64.5 -27.5t25.5 -66.5t-27.5 -64.5 t-64.5 -25.5q-8 0 -27.5 4t-37.5 22q-27 27 -27 66z" />
<glyph unicode="@" horiz-adv-x="1835" d="M141 471q0 197 78 389.5t232 339.5q18 16 37.5 33.5t39.5 34.5q35 27 88.5 60.5t124 62t156.5 48t188 19.5q117 0 228.5 -30.5t210.5 -122.5q41 -37 65.5 -72t34.5 -53q23 -41 46.5 -118t23.5 -188q0 -76 -13.5 -157.5t-42 -161.5t-71.5 -153.5t-101 -133.5 q-10 -10 -30.5 -29.5t-51 -39t-69.5 -33.5t-84 -14q-41 0 -68.5 13t-45 32.5t-27 41t-11.5 37.5q-4 18 -3 35t5 51q-16 -23 -32.5 -43t-36.5 -40q-12 -14 -37 -35t-58.5 -40.5t-75.5 -33.5t-89 -14q-33 0 -66 8t-63 29q-51 31 -87 97t-36 181q0 29 8 100.5t41 153.5 q18 49 49 100q10 18 39 59.5t82 82.5q66 53 118 67.5t83 14.5q16 0 42.5 -4.5t56.5 -18.5t61.5 -39.5t56.5 -68.5q16 -25 27.5 -59t11.5 -36l41 176h92l-66 -290q-8 -37 -18.5 -85.5t-19.5 -99.5t-16 -98t-7 -84q0 -68 29.5 -95.5t60.5 -27.5q29 0 58.5 15.5t56 38t49 48 t39.5 48.5q20 29 46.5 77t51 112.5t41 143t16.5 166.5q0 96 -25.5 191.5t-97.5 173.5q-27 31 -65.5 60.5t-91 53t-120 38t-151.5 14.5q-23 0 -68.5 -2t-107.5 -17q-29 -6 -73 -18t-98 -38t-114.5 -65.5t-121.5 -101.5q-104 -100 -163 -204.5t-87.5 -199t-35.5 -170 t-7 -116.5q0 -20 3 -66.5t17.5 -104.5t44 -125t82.5 -128q35 -41 87 -83t124 -77t163 -56.5t204 -21.5q100 0 188 19.5t160 48.5t126 59.5t85 53.5q37 27 71.5 56.5t69.5 61.5l37 -41q-27 -25 -62.5 -57.5t-105.5 -79.5q-16 -12 -34.5 -23.5t-37.5 -21.5q-31 -16 -80 -39.5 t-113.5 -45t-142 -36t-165.5 -14.5q-92 0 -171 15.5t-143.5 38t-114 50t-81.5 52.5q-16 10 -29.5 22.5t-30.5 26.5q-121 113 -167 248t-46 272zM608 477q0 -88 25.5 -136t66.5 -77q14 -10 40 -20.5t63 -10.5q78 0 141.5 45.5t110.5 114.5q27 43 44 93.5t27.5 95.5t13.5 80 t3 47q2 35 0 56t-6 38q-4 16 -16.5 45t-35 56.5t-58.5 47t-87 19.5q-27 0 -74 -11.5t-100 -62.5q-41 -41 -70.5 -92t-49 -107.5t-29 -114t-9.5 -106.5z" />
<glyph unicode="A" horiz-adv-x="1150" d="M-2 0l565 1511q6 14 17 15q8 0 14 -15l557 -1511h-119l-194 543h-521l-200 -543h-119zM350 643h451l-148 410q-20 59 -38.5 116.5t-36.5 116.5q-14 -45 -27.5 -89t-30.5 -87z" />
<glyph unicode="B" horiz-adv-x="1067" d="M133 2v1440q37 6 100.5 14t155.5 8q63 0 129 -7t126.5 -26.5t112.5 -56.5t91 -94q57 -86 57 -188q0 -55 -15.5 -99.5t-37 -77t-45 -53t-39.5 -33.5q-20 -12 -43 -23t-68 -28q37 -8 69 -16t67 -25q72 -35 114.5 -82t64 -96t28 -94t6.5 -72q0 -25 -4.5 -62.5t-21.5 -80.5 t-49 -89t-87 -85q-57 -39 -146.5 -67.5t-240.5 -28.5q-82 0 -163 6t-161 16zM238 717l2 -627q31 -6 55 -11t48 -8t49.5 -4t58.5 -1q14 0 61 1t106.5 15t122 45t105.5 92q55 80 55 180q0 68 -30.5 133.5t-88.5 106.5q-18 14 -45.5 27.5t-79.5 27.5q-37 8 -77.5 13.5t-90 7.5 t-111 2h-140.5zM238 815q46 -3 92 -3h22q58 1 115 5q53 2 103.5 11.5t97.5 33.5q63 35 98 93.5t35 129.5q0 49 -13.5 86t-32 64t-39 44t-34.5 28q-35 25 -93.5 43t-156.5 18q-49 0 -97 -4t-97 -10v-539z" />
<glyph unicode="C" horiz-adv-x="1409" d="M74 715q0 94 18.5 171t45 136t55 102t51.5 72q109 133 259 206t324 73q102 0 186.5 -21.5t150 -52.5t113.5 -62.5t79 -52.5l-70 -84q-23 16 -43 30.5t-43 31.5q-16 10 -52 29.5t-85 38t-108.5 32.5t-125.5 14q-27 0 -68.5 -4t-93 -18.5t-109.5 -41t-116 -71.5 q-35 -25 -79 -69t-83.5 -108.5t-67.5 -151.5t-28 -197q0 -29 4.5 -73t18.5 -98t41.5 -114.5t75.5 -120.5q94 -117 230 -181t284 -64q16 0 53 2t85 12t100 28.5t102 53.5q29 20 52 42.5t48 47.5l78 -82q-10 -8 -28.5 -25.5t-46.5 -39t-62.5 -44t-73.5 -38.5 q-49 -20 -97.5 -31.5t-90.5 -18t-73.5 -7.5t-47.5 -1q-33 0 -82 4t-109.5 19.5t-129.5 45t-138 83.5q-35 25 -86 75t-99.5 124.5t-83 174t-34.5 224.5z" />
<glyph unicode="D" horiz-adv-x="1280" d="M131 2l2 1450q61 6 123.5 11t124.5 5q27 0 79 -2t120 -12q35 -6 87 -17.5t111.5 -38t125 -70.5t126.5 -116t98 -146.5t60 -166.5q12 -51 18 -95t6 -97q0 -43 -8 -115t-38.5 -155t-91 -169t-165.5 -157q-74 -51 -153 -82q-55 -20 -109.5 -31.5t-101.5 -17t-83 -6.5t-54 -1 q-76 0 -139.5 8.5t-137.5 20.5zM244 80q47 -4 91 -7t91 -3q20 0 60 1t94 11q39 8 122.5 35.5t171.5 97.5q29 23 69 63.5t76 100t60.5 139.5t24.5 182q0 145 -57.5 287.5t-169.5 237.5q-96 80 -223.5 115.5t-247.5 35.5q-41 0 -81 -2t-81 -6v-1288z" />
<glyph unicode="E" horiz-adv-x="1067" d="M133 0v1446h866l-32 -100l-725 8v-715l755 4l-34 -94l-719 4v-463l796 10l-34 -100h-873z" />
<glyph unicode="F" horiz-adv-x="1067" d="M127 0q4 86 4 170v170v1106h907l-39 -98l-755 10v-696h772l-39 -97l-735 6v-200q0 -43 1 -85t1 -85q2 -49 3 -99.5t5 -101.5h-125z" />
<glyph unicode="G" horiz-adv-x="1622" d="M76 727q0 31 4 82t19.5 112.5t46 131t83.5 139.5q23 29 67 72t120 90q98 61 202.5 87.5t221.5 26.5q35 0 87 -4t114.5 -19t134 -46t143.5 -86q33 -25 61.5 -51.5t57.5 -55.5l-86 -69l-50 50t-70 58.5t-94.5 56t-123.5 46.5q-20 4 -70.5 14t-114.5 10q-29 0 -90 -6 t-133 -31q-23 -8 -61.5 -25.5t-84.5 -47t-93.5 -72.5t-85.5 -103q-14 -23 -32 -56.5t-33 -78.5t-25.5 -101t-10.5 -124q0 -111 28 -201t91 -182q27 -39 72 -87t112.5 -90t158.5 -70.5t212 -28.5q100 0 162.5 22.5t101.5 40.5q20 10 54 29.5t71 51.5t74 76t67 103 q14 29 25.5 61.5t24.5 94.5h-400q-59 0 -117.5 -1t-117.5 -1v104h760q-2 -29 -5.5 -58.5t-9.5 -58.5q-8 -41 -36.5 -123.5t-100.5 -172.5q-27 -33 -74 -79t-117.5 -87t-165 -71t-210.5 -30q-20 0 -59.5 2t-89.5 11.5t-107.5 27t-112.5 45.5q-33 16 -64.5 40t-60.5 46 q-131 109 -200.5 262.5t-69.5 323.5z" />
<glyph unicode="H" horiz-adv-x="1280" d="M127 0q4 66 6 130.5t2 127.5q2 49 2 97v96v774q-2 55 -3 110.5t-5 110.5h121q-2 -43 -3 -86t-1 -86v-633h786v475q0 78 -2 161t-4 169h121q-6 -170 -6 -326v-846q0 -137 6 -274h-125q4 53 7 106.5t3 106.5v328h-786v-265q0 -66 2 -135t4 -141h-125z" />
<glyph unicode="I" horiz-adv-x="382" d="M131 0q6 258 6 512v651q-2 72 -2 141.5v141.5h119q-4 -72 -6 -145.5t-2 -145.5v-870q0 -72 1 -142.5t3 -142.5h-119z" />
<glyph unicode="J" horiz-adv-x="1024" d="M41 403l104 5q2 -16 2 -33t5 -33q2 -16 18 -68.5t53 -99.5q16 -18 31.5 -32.5t38.5 -26.5q55 -37 103 -44.5t75 -7.5q14 0 44 3.5t65.5 15.5t71.5 35.5t65 66.5q27 41 41 90.5t21 112t8 139t1 174.5v430q-2 78 -3 158t-5 158h121q-6 -158 -6 -316v-487v-35v-80t-3 -99 t-9 -93q-14 -100 -57.5 -181t-135.5 -132q-29 -16 -83 -36t-136 -20q-18 0 -58 4t-89.5 19.5t-100.5 45.5t-90 83q-33 41 -50 85t-26.5 83t-12.5 69.5t-3 46.5z" />
<glyph unicode="K" horiz-adv-x="1067" d="M127 1446h115q-2 -55 -3 -114.5t-1 -137.5q-1 -63 -1 -133v-71q1 -110 1 -216l487 467q27 27 53.5 51.5t52.5 50.5l134 134l75 -82q-45 -41 -89 -81t-89 -81l-532 -504l518 -463q61 -55 121.5 -107.5t120.5 -101.5l-82 -90q-63 59 -125 117.5t-125 118.5l-520 479v-295 v-193.5t2 -193.5h-111q0 92 1 191.5t2 211t1 239.5v280q-2 158 -3 291t-3 233z" />
<glyph unicode="L" horiz-adv-x="1024" d="M129 1446h115v-1352l741 10l33 -104h-887q2 131 2 261t2 259v506q0 211 -6 420z" />
<glyph unicode="M" horiz-adv-x="1409" d="M104 0q4 49 6.5 98t4.5 99l41 1235q0 4 1 10t9 6q8 -4 14 -12l527 -680l514 682q2 4 7 9q4 4 7 4q1 0 2 -1q12 0 8 -16l33 -955q4 -141 10 -263t12 -216h-118q1 58 1 114q0 58 -1 114q-2 112 -6 227l-11 372q-4 95 -5 189v62q0 63 1 126q-37 -51 -73.5 -101t-71.5 -99 l-314 -424q-78 104 -154.5 203.5t-148.5 197.5q-41 57 -80.5 112.5t-78.5 110.5q2 -74 3 -158v-34q0 -72 -3 -162q-2 -10 -2 -31l-11 -481q-2 -86 -3 -169q0 -28 -1 -56q0 -56 2 -113h-121z" />
<glyph unicode="N" horiz-adv-x="1280" d="M129 0q2 117 3 243t1 273v922q0 4 2 8t6 4q2 -2 4 -3t7 -5l493 -643q66 -86 131.5 -171t130.5 -173q18 -25 36 -48.5t34 -46.5q23 -29 40 -56.5t36 -53.5q-4 53 -5 108.5t-6 126.5q-2 92 -2 208t-2 241v119.5v117t-1 104.5t-3 85q0 25 -1 45t-3 41h117q-2 -47 -3 -95 t-3 -112q0 -49 1 -104.5t1 -112.5v-1016q-4 -8 -6 -8q-4 2 -11 10l-768 1004q-35 47 -65.5 89t-61.5 87q2 -98 3.5 -216t3.5 -270v-299q0 -125 1 -223t5 -180h-115z" />
<glyph unicode="O" horiz-adv-x="1662" d="M74 721q0 33 6 87t25.5 119.5t55.5 138.5t95 144q106 125 258 196t317 71q33 0 87.5 -6.5t120 -25t138 -54t144.5 -97.5q125 -106 195.5 -257.5t70.5 -317.5q0 -35 -6 -90.5t-26.5 -123t-59.5 -142t-102 -146.5q-106 -121 -255 -186.5t-309 -65.5q-37 0 -96 7.5t-132 30 t-151.5 66t-152.5 117.5q-104 104 -163.5 245.5t-59.5 289.5zM182 719q0 -31 6.5 -82t25.5 -114.5t57.5 -132.5t101.5 -132q23 -23 63.5 -55.5t98 -62t131 -51t163.5 -21.5q27 0 71 4t98.5 19t115 44t119.5 78q115 92 178.5 226t63.5 282q0 117 -41 227.5t-117 200.5 q-92 104 -220 163.5t-268 59.5q-29 0 -74.5 -5t-101 -20.5t-116 -45t-121.5 -80.5q-111 -92 -172.5 -224.5t-61.5 -277.5z" />
<glyph unicode="P" horiz-adv-x="1024" d="M127 0q4 51 5 101.5t3 101.5v1243q57 6 114.5 11t117.5 5q70 0 141 -6q27 -4 75 -13t104 -33t114.5 -67t103.5 -112q23 -33 51.5 -102.5t28.5 -174.5q0 -25 -3 -59.5t-15.5 -76.5t-37 -89t-65.5 -92q-23 -25 -58.5 -54.5t-85.5 -55t-116.5 -43t-152.5 -17.5 q-23 0 -42.5 1t-43 3t-52 7t-69.5 11v-235q0 -129 6 -254h-123zM244 584q55 -14 95 -19.5t97 -5.5q90 0 170 25.5t139.5 76t94 124t34.5 169.5q0 20 -3 57.5t-19 86.5q-35 109 -112.5 167t-184.5 83q-59 14 -104 17t-68 3q-29 0 -57.5 -2t-81.5 -8v-774z" />
<glyph unicode="Q" horiz-adv-x="1662" d="M74 723q2 135 49 261t135 228q109 125 259.5 195t313.5 70q33 0 88.5 -6.5t123 -26t142.5 -57t146 -101.5q121 -106 188.5 -254.5t67.5 -312.5q0 -33 -6 -94.5t-35 -143.5q-66 -197 -209 -320.5t-336 -164.5q-66 -14 -100.5 -16.5t-66.5 -2.5q35 -4 79.5 -13t116.5 -38 q41 -16 84 -33.5t86 -17.5q27 0 51 8q37 10 60.5 35t46.5 53l72 -71q-53 -53 -103.5 -86t-128.5 -33q-53 0 -100 15.5t-94 35.5q-86 35 -134.5 49.5t-97.5 14.5q-63 0 -111.5 -19.5t-101.5 -50.5l-45 78q18 10 37.5 21.5t40.5 19.5q53 23 96 27.5t96 7.5q-31 2 -73.5 6 t-96 17t-114 40t-123.5 74q-139 104 -220 266t-83 340zM182 719q0 -129 49.5 -249t141.5 -212q90 -90 211 -140t245 -50q121 0 231.5 44t201.5 124q100 92 156.5 220t56.5 265q0 29 -5.5 76t-21.5 104t-47 120.5t-84 125.5q-90 106 -220 165.5t-268 59.5q-123 0 -237.5 -46 t-204.5 -130q-98 -92 -151.5 -217t-53.5 -260z" />
<glyph unicode="R" horiz-adv-x="1024" d="M127 0q6 129 6 258t2 258v674q0 55 -1 110.5t-3 112.5v37q66 8 132.5 13t133.5 5q115 0 221.5 -19t200.5 -91q92 -68 139.5 -170.5t47.5 -214.5q0 -18 -2.5 -53t-16.5 -80q-8 -29 -25.5 -68t-49 -80t-80 -81t-119.5 -68q-35 -16 -71 -24.5t-107 -18.5l483 -457l-88 -74 l-635 627q70 -6 139 -6q20 0 70.5 3t111 19.5t123 54.5t105.5 109q39 61 46 116.5t7 80.5q0 29 -8 90t-53 131q-18 29 -37 48.5t-29 27.5q-43 37 -131 72.5t-227 35.5q-41 0 -84 -3t-84 -7v-1053q-1 -52 -1 -105v-52q1 -80 5 -158h-121z" />
<glyph unicode="S" horiz-adv-x="1067" d="M35 193l76 75q23 -25 57.5 -58.5t84.5 -65t117.5 -54t157.5 -22.5q14 0 53.5 3t86.5 17t96 43t84 80q31 47 38 91t7 65q0 49 -13.5 85.5t-33 63.5t-41 42t-35.5 26q-33 20 -66.5 34.5t-76.5 29t-95.5 30.5t-121.5 41q-66 23 -128.5 51.5t-109.5 77.5q-31 31 -49.5 66.5 t-27.5 68.5t-11 59.5t-2 40.5t2 41t11 58.5t25.5 67.5t45.5 71q43 53 94 85t99.5 47t88 19.5t62.5 4.5q45 0 133 -17.5t188 -81.5q12 -8 20.5 -14t18 -13.5t21.5 -17.5t31 -26l-70 -82l-27.5 27.5t-29.5 27.5q-14 12 -40 29.5t-62 34t-82 27.5t-99 11q-63 0 -122.5 -19.5 t-105.5 -58t-74 -94t-28 -125.5q2 -33 9.5 -63.5t23.5 -58.5q33 -55 96.5 -87t182.5 -69l32 -11q31 -10 75 -24t93 -32.5t86 -37.5q102 -51 160.5 -127.5t58.5 -195.5q0 -98 -40.5 -175t-107.5 -129t-153 -79t-174 -27q-25 0 -60.5 3t-88.5 18q-53 14 -98.5 33.5t-85 45 t-77.5 56.5t-79 68z" />
<glyph unicode="T" horiz-adv-x="1024" d="M8 1350l27 96h983l-37 -96h-434v-834q0 -111 1 -222.5t1 -221.5q2 -18 2 -36v-36h-121q4 98 6 193.5t2 193.5v963h-430z" />
<glyph unicode="U" horiz-adv-x="1409" d="M104 1446h119q-6 -182 -6 -367v-391v-111.5t7 -110.5t23.5 -105.5t49.5 -100.5q18 -29 51 -64.5t82 -66.5t116.5 -51.5t155.5 -20.5q27 0 85.5 6.5t125 32t130 78.5t102.5 148q33 78 38 154q4 55 4 114q0 23 -1 47v219v183t-2 184q-2 55 -3 111.5t-3 111.5h120 q-6 -123 -6 -246v-354q1 -66 1 -132t-1 -132q-2 -104 -16 -200.5t-78 -188.5q-25 -37 -66.5 -77t-102 -72t-142.5 -53.5t-189 -21.5q-29 0 -81 3t-115.5 20.5t-132 54.5t-125.5 105q-16 16 -42 53t-48 94q-31 82 -36 174t-7 178v217q0 289 -7 578z" />
<glyph unicode="V" horiz-adv-x="1150" d="M2 1440l104 41l484 -1241l469 1237l96 -39l-561 -1444q-4 -10 -10 -10q-4 2 -9 10z" />
<glyph unicode="W" horiz-adv-x="1662" d="M2 1430l104 43l482 -1244l194 504l-272 699l100 41l228 -594l227 587l90 -36l-266 -682l203 -521l477 1241l92 -38l-567 -1442q-3 -12 -9 -12q-1 0 -2 1l-8 5l-244 620l-245 -622q-3 -5 -7 -5q-5 0 -10 11z" />
<glyph unicode="X" horiz-adv-x="1193" d="M6 35l504 715l-342 454q-39 51 -77 101.5t-79 99.5l90 68q35 -47 70 -95.5t70 -95.5l331 -440l439 631l84 -56l-459 -657l350 -469q23 -33 46.5 -63.5t45.5 -61.5q25 -33 50.5 -64.5t50.5 -62.5l-93 -64q-35 47 -68.5 94.5t-68.5 94.5l-379 502l-479 -693z" />
<glyph unicode="Y" horiz-adv-x="1067" d="M-2 1419l96 62q39 -66 79 -130.5t81 -127.5l166 -267q29 -47 57.5 -92t57.5 -92q27 41 51 80t51 78l158 252q23 33 43 64.5t41 66.5q27 41 51 81t49 81l84 -60l-481 -739v-198.5t2 -217.5q0 -131 6 -260h-121q2 41 3 81t1 81v516z" />
<glyph unicode="Z" horiz-adv-x="1150" d="M-4 0l919 1348h-817v98h1022l-932 -1350h496q104 2 206.5 2t207.5 2v-100h-1102z" />
<glyph unicode="[" horiz-adv-x="598" d="M209 -244v1733h352v-98h-248v-1538h252v-97h-356z" />
<glyph unicode="\" horiz-adv-x="724" d="M104 1446h60l469 -1483h-62z" />
<glyph unicode="]" horiz-adv-x="598" d="M20 1395v94h357v-1733h-354v97h251v1542h-254z" />
<glyph unicode="^" horiz-adv-x="1492" d="M375 770l340 676h73l330 -676h-71l-299 619l-299 -619h-74z" />
<glyph unicode="_" horiz-adv-x="1024" d="M-20 -332h1064v-59h-1064v59z" />
<glyph unicode="`" d="M-94 1130l96 78l211 -288l-49 -41z" />
<glyph unicode="a" horiz-adv-x="811" d="M63 272q0 16 2.5 43t14.5 62q8 25 28.5 57.5t55.5 61t86 49t123 20.5q76 0 128 -21.5t74 -37.5q10 -8 17.5 -15.5t17.5 -15.5q0 16 -1 29.5t-1 30.5q-2 31 -10 64.5t-30.5 62t-64.5 48t-114 19.5q-88 0 -145.5 -27.5t-85.5 -44.5l-35 78q12 8 24.5 15.5t26.5 13.5 q29 14 86 31.5t139 17.5q12 0 34 -1t49.5 -7t58 -18.5t59.5 -34.5q43 -35 65.5 -81t31 -96.5t8.5 -104.5v-103v-70t3 -79t7 -78t14 -68q4 -16 8 -24.5t15 -31.5l-99 -36q-6 18 -11 31.5t-8 24.5t-5 24.5t-6 33.5q-14 -14 -36 -33.5t-52.5 -38t-71.5 -32t-92 -13.5 q-20 0 -51 2.5t-72 18.5q-61 25 -98 61.5t-56.5 76.5t-25 77t-5.5 59zM164 281q0 -29 8 -66t32.5 -68.5t68.5 -54t116 -22.5q90 0 153.5 54t63.5 148q0 70 -28.5 111t-65.5 62.5t-75 26.5t-58 5q-16 0 -44 -4t-63 -20q-14 -6 -32.5 -18.5t-36 -33t-28.5 -50t-11 -70.5z" />
<glyph unicode="b" horiz-adv-x="937" d="M102 1475h119q-4 -63 -4 -127v-127v-478q35 16 96.5 40t157.5 24q90 0 142.5 -20.5t84.5 -43.5q25 -16 54.5 -43.5t57.5 -70.5t46 -101.5t18 -134.5q0 -27 -12 -94.5t-59 -138.5q-20 -31 -39 -48.5t-31 -27.5q-35 -31 -102.5 -66.5t-181.5 -35.5q-63 0 -118 12t-98 28.5 t-74.5 34t-49.5 29.5l6 320v649v137.5t-4 134.5q-2 37 -3.5 74t-5.5 74zM219 131q10 -4 19.5 -10t19.5 -10q23 -10 76 -25.5t121 -15.5q23 0 67.5 6t98.5 35q51 31 81.5 73.5t45 85.5t18.5 78t4 51q0 33 -6 68t-19 63q-39 94 -114.5 137.5t-171.5 43.5q-72 0 -124 -17.5 t-116 -46.5v-516z" />
<glyph unicode="c" horiz-adv-x="811" d="M63 397q0 66 15.5 114t25.5 71q51 113 156 176t229 63q51 0 95.5 -10t78 -24.5t58 -30t41.5 -25.5l-60 -86q-12 8 -31.5 23.5t-47 29t-64.5 23.5t-80 10q-35 0 -70.5 -8t-66.5 -25q-84 -43 -129 -124.5t-45 -174.5q0 -29 12.5 -93t65.5 -128q43 -49 109.5 -78.5 t131.5 -29.5q10 0 33 1t51 9q72 20 111 57t57 60l72 -66q-12 -14 -24.5 -27.5t-28.5 -25.5q-57 -47 -126 -74t-145 -27q-23 0 -66.5 5.5t-96.5 27.5q-59 25 -106.5 65t-82.5 90t-53.5 109.5t-18.5 122.5z" />
<glyph unicode="d" horiz-adv-x="937" d="M66 399q0 18 2 49t12 68t28.5 78t53.5 80q16 18 42.5 41.5t64.5 44t88.5 34t113.5 13.5q92 0 156.5 -24.5t95.5 -41.5v342q-2 98 -2 194.5t-2 195.5h115q-8 -137 -13 -279q-2 -92 -2 -184v-185v-329v-115.5t2 -116.5l6 -178q-18 -10 -51 -28.5t-77 -36t-98 -31 t-118 -13.5q-20 0 -63 4.5t-94 24.5q-127 47 -193.5 153.5t-66.5 239.5zM168 397q0 -16 2 -43.5t14 -66.5q8 -23 28.5 -60t56.5 -70.5t90.5 -58t127.5 -24.5q72 0 122 17.5t112 47.5v506q-31 16 -89.5 41t-150.5 25q-47 0 -77.5 -7.5t-47.5 -13.5q-96 -35 -142 -115.5 t-46 -177.5z" />
<glyph unicode="e" horiz-adv-x="937" d="M72 410q0 16 4 58t20 89q43 123 146.5 190.5t232.5 67.5q125 0 226.5 -66.5t142.5 -185.5q16 -47 19 -85t3 -85h-702q2 -14 7 -52t22 -81q39 -90 115.5 -138t172.5 -48q59 0 105.5 15t80 38t57.5 47.5t36 40.5l71 -57q-16 -23 -43.5 -53.5t-69.5 -58.5t-98.5 -48.5 t-132.5 -20.5q-88 0 -163.5 29t-135.5 92q-16 16 -36.5 45t-38 68t-29.5 89t-12 110zM176 479h596q-4 35 -14 67t-29 62q-12 16 -31.5 38t-50.5 40.5t-73 30.5t-95 12q-92 0 -170 -44t-112 -130q-4 -12 -10.5 -29.5t-10.5 -46.5z" />
<glyph unicode="f" d="M23 647v86h122v377q0 92 7.5 184t54.5 174q25 43 55.5 69t61 39t58.5 17t46 4t45 -4t56.5 -17t58 -39t49.5 -71q12 -29 16 -52t9 -34l-91 -18q0 4 -4 25.5t-14 39.5q-4 8 -13.5 21.5t-23.5 27t-35.5 23.5t-48.5 10q-53 0 -94 -34q-35 -29 -52.5 -69t-25.5 -85t-10 -91 t-2 -85v-412h221v-86h-221q0 -326 6 -647h-113q4 162 4 322.5v324.5h-122z" />
<glyph unicode="g" horiz-adv-x="980" d="M72 389q0 23 6 74t33 110q53 117 163.5 180.5t237.5 63.5q106 0 192.5 -30.5t178.5 -73.5q-6 -27 -11.5 -52.5t-9.5 -56.5t-6 -69.5t-2 -94.5q0 -109 6 -216t6 -218v-30.5t-2 -53.5t-8 -64.5t-18 -66.5q-27 -74 -79 -112.5t-107.5 -57t-102.5 -21.5t-64 -3q-14 0 -41.5 1 t-62.5 7t-75 19.5t-77 37.5q-16 10 -34.5 25.5t-30.5 31.5q-4 4 -11.5 13.5t-15.5 23.5l86 58q4 -4 19.5 -23.5t31.5 -34.5q27 -25 59 -39t60.5 -20t51 -7t34.5 -1q6 0 38 1t73 12t81 33.5t64 65.5q23 41 27 99q3 38 3 93q0 28 -1 60q-16 -8 -42 -20.5t-59.5 -24.5 t-75.5 -21.5t-91 -9.5q-18 0 -52 3.5t-76 14.5t-88.5 33.5t-86.5 61.5q-16 14 -37 41t-39.5 64.5t-31.5 86t-13 107.5zM176 393q0 -72 21.5 -130t62.5 -100t99.5 -65.5t129.5 -23.5q104 0 170 29.5t101 52.5q-2 53 -3 108t-1 111q0 72 4 143.5t8 143.5q-29 12 -94.5 35.5 t-153.5 23.5q-61 0 -109.5 -13.5t-84 -33t-59 -43t-38.5 -43.5q-18 -29 -29.5 -58.5t-16.5 -56.5t-6 -48.5t-1 -31.5z" />
<glyph unicode="h" horiz-adv-x="894" d="M109 1475l114 -2q-2 -80 -2 -160t-2 -160l2 -436q29 23 89.5 53.5t158.5 30.5q12 0 44 -3t71 -14.5t78.5 -35t68.5 -64.5q16 -23 25.5 -46.5t14.5 -53t7 -68.5t2 -90v-188q0 -119 6 -238h-110q2 78 3 153.5t1 153.5v158v15q0 59 -14 111q-16 58 -78 95q-16 10 -48 21.5 t-79 11.5q-25 -2 -80 -11.5t-115 -48.5q-18 -10 -47 -38v-355q0 -66 2 -133t4 -133h-112q2 47 4 95t2 98v739q-2 57 -2 113.5v115.5v93t-2 94q0 31 -2 62.5t-4 64.5z" />
<glyph unicode="i" horiz-adv-x="342" d="M76 1116q2 39 28.5 65.5t65.5 26.5t65.5 -27.5t26.5 -66.5t-27.5 -65.5t-66.5 -26.5q-25 2 -41.5 12.5t-24.5 16.5q-10 12 -18 29.5t-8 35.5zM111 0q6 119 6 238v239q0 156 -6 309h114q-2 -63 -3 -125.5t-1 -125.5v-273q0 -131 6 -262h-116z" />
<glyph unicode="j" horiz-adv-x="342" d="M-12 -317q10 2 29.5 5t45.5 27q35 35 44.5 87.5t11.5 146.5v577q0 66 -1 130.5t-3 129.5h110q-2 -53 -2 -108v-109v-508q0 -61 -1 -108t-4 -84t-8 -67.5t-15 -59.5q-23 -61 -58 -91t-55 -40t-38.5 -14.5t-55.5 -8.5v95zM74 1118q2 39 28.5 65.5t65.5 26.5t65.5 -27.5 t26.5 -64.5q0 -41 -27.5 -66.5t-64.5 -25.5t-68 27q-6 8 -16 23.5t-10 41.5z" />
<glyph unicode="k" horiz-adv-x="768" d="M109 1477l116 -2q-4 -86 -5 -169t-3 -169v-680l420 360l57 -80l-379 -307l455 -373l-74 -80l-479 416v-160q0 -59 2 -116.5t4 -116.5h-112q2 86 4 168t2 168v788q0 104 -2 190.5t-6 162.5z" />
<glyph unicode="l" horiz-adv-x="342" d="M111 0q6 150 6 301v903q0 135 -6 271h116q-6 -147 -6 -281v-954q0 -121 6 -240h-116z" />
<glyph unicode="m" horiz-adv-x="1323" d="M106 696q23 12 42.5 23.5t41.5 23.5q59 31 118 48.5t126 17.5q10 0 30.5 -1t45.5 -7t53.5 -17.5t54.5 -31.5q14 -10 24.5 -22.5t14.5 -16.5q12 8 39 23.5t64 31.5t82 28.5t94 12.5q23 0 71 -7t95 -46q39 -33 58.5 -76t27.5 -90t8 -96.5v-92.5v-153q0 -61 1 -124t1 -124 h-111q2 53 3.5 106.5t1.5 106.5v330q0 18 -4.5 49t-21.5 61.5t-51 52t-93 21.5q-23 0 -74 -8t-109 -43q-10 -6 -19 -13.5t-20 -15.5q4 -66 4.5 -128t2.5 -128v-250q0 -72 6 -141h-115q2 49 3 98t1 97v315q0 57 -9 106.5t-67 81.5q-35 20 -63.5 24.5t-42.5 4.5 q-78 -2 -129 -31.5t-72 -46.5q0 -37 1 -75v-24q0 -25 -1 -50v-310l6 -190h-114q6 123 6 244v293q0 20 -1 39.5t-1 39.5q-2 20 -3 40t-6 40z" />
<glyph unicode="n" horiz-adv-x="894" d="M111 0q2 66 3 128t1 126v307q0 35 -1 72t-3 74q23 12 43 24t43 23q35 16 101.5 36.5t158.5 20.5q10 0 37.5 -1t60.5 -9q6 -2 32.5 -9.5t58.5 -25.5t62.5 -49t49.5 -80q16 -43 18 -96.5t2 -147.5v-162q2 -70 3 -125t3 -106h-112q2 47 4 97t2 112v246q0 35 -2 68.5 t-10.5 64t-26.5 57.5t-53 47q-23 14 -52.5 23.5t-72.5 9.5q-94 0 -150.5 -24.5t-99.5 -49.5q2 -51 3 -100t1 -98v-222v-115.5t4 -115.5h-108z" />
<glyph unicode="o" horiz-adv-x="980" d="M63 399q0 16 4.5 52t20.5 81q20 63 60 116.5t93.5 91.5t116 58.5t129.5 20.5q18 0 48 -3t67 -14t77 -30.5t81 -52.5q49 -43 78.5 -90t45 -91t20.5 -82t5 -59q0 -25 -6 -70.5t-33 -103.5q-51 -113 -155.5 -179.5t-227.5 -66.5q-84 0 -162 33t-137 92q-14 14 -35.5 40 t-41 64t-34 86t-14.5 107zM162 397q0 -16 3 -42.5t12 -58.5t28.5 -66.5t50.5 -67.5q10 -10 31.5 -26.5t50.5 -32t66.5 -26.5t82.5 -11q33 0 97.5 15t130.5 79q12 12 28.5 32.5t32 51t26.5 69.5t11 86q0 68 -25.5 128.5t-69.5 105.5t-103.5 71.5t-127.5 26.5q-70 0 -139 -33 q-86 -41 -136 -121.5t-50 -179.5z" />
<glyph unicode="p" horiz-adv-x="937" d="M109 -410q2 37 3 73t3 71q2 47 2 91v91v369v119.5t-2 121.5q-2 43 -3 86t-3 88l61 31l43 21.5t62.5 26t79.5 20.5t96 8q23 0 67.5 -5t97.5 -26q121 -49 188.5 -153.5t67.5 -233.5q0 -23 -5 -69t-27 -99q-12 -31 -38 -73t-71 -78.5t-109.5 -63t-154.5 -26.5q-25 0 -80 6 t-119 32q-14 6 -26.5 12.5t-24.5 12.5v-217q0 -119 6 -236h-114zM219 137q27 -12 89.5 -37.5t148.5 -25.5q53 2 90 12t57 20q84 37 124 113t40 166q0 14 -2 36.5t-8 50.5t-19.5 57.5t-36.5 60.5q-12 16 -33.5 36.5t-53 39t-73.5 32t-96 13.5q-68 0 -117.5 -16.5 t-109.5 -45.5v-512z" />
<glyph unicode="q" horiz-adv-x="937" d="M66 389q0 156 94 270q61 74 145 111t180 37q43 0 83 -7t74 -16.5t59.5 -18.5t37.5 -15q23 -10 45.5 -22.5t44.5 -25.5q-4 -86 -5 -167.5t-3 -165.5v-432l6 -345h-114q4 72 6 146t2 145l-2 160q-29 -12 -92.5 -37.5t-153.5 -25.5q-23 0 -73 5t-107 31q-111 49 -169 150.5 t-58 222.5zM168 387q0 -72 22.5 -129t64.5 -97t99.5 -62.5t126.5 -22.5q43 0 81 7t69 17.5t54.5 20.5t35.5 16v512q-33 16 -87 40t-145 24q-16 0 -55 -4t-82 -25q-90 -41 -137 -122t-47 -175z" />
<glyph unicode="r" horiz-adv-x="512" d="M106 791h103l2 -105q4 8 9 16.5t9 16.5q6 8 19.5 23.5t34 29.5t48 24.5t62.5 10.5q8 0 34 -3t48 -13q10 -4 15.5 -7.5t15.5 -7.5l-27 -94q-23 10 -41 15t-43 5q-55 -2 -90 -30.5t-45 -42.5q-27 -35 -34 -85t-7 -136v-156q0 -127 6 -252h-114q6 92 6 182v275v96t-2 96 q-2 35 -3 71t-6 71z" />
<glyph unicode="s" horiz-adv-x="681" d="M51 111l64 75l55 -49q25 -16 73 -39.5t126 -23.5q88 0 125.5 36.5t37.5 77.5q0 10 -3 25.5t-15 34.5q-25 33 -65.5 48t-77.5 26q-23 4 -45.5 10t-44.5 12q-39 12 -77 28.5t-69 43t-49 61.5t-18 84q0 63 25.5 110.5t67.5 80t96 49t112 16.5q51 0 94 -11t76.5 -26.5 t57.5 -33t38 -27.5l-60 -72q-53 37 -102 59.5t-117 22.5q-43 0 -87 -13.5t-72 -47.5q-10 -10 -21.5 -31t-11.5 -55q0 -39 20 -68q29 -35 82 -55.5t144 -44.5q4 -2 37.5 -11.5t60.5 -21.5q47 -23 72.5 -48.5t35.5 -45.5q14 -25 16.5 -49.5t2.5 -34.5t-4 -38t-21 -59 q-10 -18 -30.5 -40.5t-51 -41t-73.5 -30.5t-99 -12q-31 0 -53 3t-51 9q-111 27 -201 117z" />
<glyph unicode="t" horiz-adv-x="512" d="M0 647v86h115q0 86 -1 172t-3 172h112q-6 -160 -6 -344h295v-86h-295v-291v-57.5t2 -60.5q4 -43 13.5 -78t50.5 -60q23 -16 44 -19t44 -3q59 0 94 16.5t61 32.5l49 -74q-12 -6 -32.5 -18t-48 -24.5t-61.5 -20.5t-73 -8q-78 0 -119.5 23.5t-64.5 47.5q-25 29 -35 51.5 t-14 36.5q-8 27 -9 54.5t-3 80.5v371h-115z" />
<glyph unicode="u" horiz-adv-x="894" d="M96 788h115q-4 -59 -6 -117.5t-2 -117.5v-191q0 -49 4 -105t33 -99q14 -20 30.5 -32.5t24.5 -16.5q31 -18 66.5 -27.5t70.5 -9.5q25 0 74 8t104 41q16 10 30.5 21.5t31.5 21.5q-2 53 -3 103t-3 102v168v124.5t-4 124.5h114q-6 -135 -6 -274q-1 -47 -1 -90q0 -84 3 -152 q4 -102 14 -157q8 -35 19.5 -64t15.5 -39l-96 -33q-10 23 -17.5 42.5t-19.5 60.5q-16 -12 -39.5 -30.5t-55.5 -34t-74 -27t-97 -11.5q-61 0 -128 20.5t-112 65.5q-10 10 -23.5 26.5t-25.5 45.5q-16 37 -23.5 76t-9.5 115v264q0 49 -1 99t-3 99z" />
<glyph unicode="v" horiz-adv-x="811" d="M-6 760l108 55q35 -78 76 -160t82 -163q41 -78 79 -155t77 -151q23 49 45 97.5t45 95.5l123 256q23 45 42 90t40 92l98 -53q-25 -45 -48.5 -89t-45.5 -91q-16 -35 -33.5 -69t-34.5 -69l-229 -475l-230 432q-51 102 -112 213q-18 35 -39 72t-43 72z" />
<glyph unicode="w" horiz-adv-x="1323" d="M-4 762l102 49q23 -51 44.5 -101.5t45.5 -101.5l195 -418l285 623l290 -627q47 102 94.5 202.5t92.5 203.5q25 55 47 109.5t45 107.5l90 -45q-23 -45 -44 -89t-44 -87q-23 -45 -42 -89t-40 -87l-209 -437l-286 617l-285 -617l-283 594q-23 47 -47 96.5t-51 96.5z" />
<glyph unicode="x" horiz-adv-x="854" d="M10 47l142 141l208 222l-167 178q-78 80 -160 160l84 67q29 -35 59.5 -68.5t63.5 -68.5l186 -199l162 172q37 41 73.5 83t73.5 85l74 -69q-37 -37 -74 -75t-73 -75l-177 -184l197 -207q41 -41 82 -81t82 -81l-84 -72q-43 53 -88 103.5t-103 109.5l-149 158l-156 -162 q-25 -27 -49 -51t-49 -51q-23 -25 -44.5 -50.5t-43.5 -49.5z" />
<glyph unicode="y" horiz-adv-x="811" d="M-6 760l104 51q23 -43 43.5 -85t42.5 -85q27 -49 53.5 -98t53.5 -101q39 -72 77 -144.5t74 -145.5l154 358q35 82 63.5 154.5t57.5 142.5l96 -39q-23 -49 -45.5 -98t-44.5 -99q-20 -41 -37.5 -84t-36.5 -84l-102 -241q-31 -72 -60.5 -143.5t-62.5 -141.5 q-31 -68 -55.5 -112t-53.5 -72q-27 -27 -68.5 -51.5t-107.5 -24.5q-29 0 -56.5 6t-80.5 25l29 88q29 -12 50 -18.5t50 -6.5q66 0 99.5 31t52.5 59q20 31 46.5 90.5t59.5 137.5l-262 491q-33 61 -65.5 120.5t-67.5 119.5z" />
<glyph unicode="z" horiz-adv-x="724" d="M-2 0l518 700q-94 0 -194 1h-39q-77 0 -142 -3q-25 0 -47 -1t-45 -3v97h653l-522 -703h281q59 0 116.5 1t114.5 3v-92h-694z" />
<glyph unicode="{" horiz-adv-x="724" d="M217 506l2 10q14 4 30.5 11.5t33 19.5t30 33.5t21.5 56.5q8 31 10 84t4 127v262q0 66 3 117t11.5 91t23.5 70.5t42 59.5q23 23 42 36t28 17q31 16 65.5 22.5t40.5 8.5v-10q-16 -4 -59 -20.5t-78 -61.5q-31 -43 -39 -100.5t-8 -155.5v-207q-2 -59 -1 -119.5t-3 -122.5 q0 -6 -2 -23.5t-6.5 -42t-12.5 -51t-22 -47.5q-23 -29 -43.5 -41t-48.5 -22q18 -8 52 -25.5t56 -66.5q25 -53 27 -118t4 -118v-346q0 -51 2 -89t8 -68.5t16.5 -54t28.5 -46.5q29 -35 58.5 -50t70.5 -30v-8q-10 2 -18 3t-19 5q-18 4 -65 20.5t-88 63.5q-41 49 -53.5 118 t-12.5 183v271q0 113 -6 178t-39 116q-18 29 -37.5 39.5t-48.5 20.5z" />
<glyph unicode="|" d="M205 -512v2044h59v-2044h-59z" />
<glyph unicode="}" horiz-adv-x="724" d="M121 -504q20 6 47 17q27 10 49.5 26.5t40.5 38.5q33 43 40 101.5t9 156.5v207q-2 59 -1 116.5t5 116.5q4 68 11.5 103t29.5 67q16 20 32.5 34t61.5 30q-41 16 -64.5 33.5t-43.5 56.5q-25 53 -28 112.5t-3 110.5q-2 33 -2 65v64v232q-2 78 -6 124t-18 81q-14 37 -37 61.5 t-45.5 38.5t-44 21.5t-33.5 11.5v10q12 -4 25.5 -6t25.5 -6q18 -4 60 -20.5t81 -63.5q41 -49 51.5 -117t12.5 -182v-271q-2 -106 4 -172.5t35 -113.5q20 -31 41.5 -44.5t50.5 -23.5v-8q-33 -10 -53 -23q-18 -10 -37 -36.5t-29 -73.5q-8 -35 -9 -81t-1 -120v-262 q0 -68 -4 -120t-13.5 -93t-27 -73t-43.5 -58q-25 -25 -50.5 -39t-49 -21.5t-42 -10.5t-28.5 -5v8z" />
<glyph unicode="~" horiz-adv-x="1492" d="M317 559q35 57 85.5 99t125.5 42q59 0 123 -26.5t117 -50.5l61 -29q29 -14 59 -25.5t62 -11.5q70 0 112 39t79 90l35 -45q-66 -88 -113 -118.5t-107 -30.5q-23 0 -42 4t-40.5 11t-48 19.5t-63.5 30.5l-53 25q-41 20 -88.5 38.5t-94.5 18.5q-23 0 -40 -5t-25 -9 q-37 -16 -61.5 -48t-47.5 -63z" />
<glyph unicode="&#xa0;" />
<glyph unicode="&#xa1;" d="M109 1372q0 39 27.5 65.5t64.5 26.5q39 -2 65.5 -28.5t26.5 -65.5t-27.5 -65.5t-64.5 -26.5q-27 0 -43.5 10.5t-22.5 18.5q-27 25 -26 65zM143 0l19 1090h88l29 -1090h-136z" />
<glyph unicode="&#xa3;" horiz-adv-x="980" d="M61 627v86l172 2q-14 61 -23 106t-15.5 81t-9.5 66.5t-3 63.5q0 20 3 64.5t26 95.5q47 111 146.5 162t211.5 51q18 0 53 -4t78 -17.5t89.5 -40t84.5 -71.5q16 -18 30 -40t23 -41.5t15 -33.5t8 -20l-92 -39q-10 25 -16 41t-21 39q-41 66 -106.5 99.5t-143.5 33.5 q-23 0 -74 -8.5t-104 -45.5q-35 -25 -70.5 -74.5t-35.5 -146.5q0 -45 12 -128t33 -195h360v-86l-344 -2q2 -14 7 -63.5t5 -102.5q0 -35 -6 -84t-41 -121q-6 -16 -15 -34.5t-30 -47.5q-8 -10 -16 -21.5t-19 -21.5q18 6 41 11t64 5q39 0 73.5 -5t73.5 -15q55 -16 105.5 -30.5 t107.5 -14.5q10 0 34 2t50 12q53 16 84 45t66 66v-137q-12 -8 -35 -22.5t-53.5 -28t-68.5 -23.5t-83 -10q-49 0 -98 11t-99.5 23.5t-100.5 23.5t-101 11q-72 0 -113 -19.5t-65 -35.5l-47 92q27 16 46 34.5t42 43.5q59 66 81.5 132.5t22.5 154.5q0 35 -3 69.5t-13 102.5h-183 z" />
<glyph unicode="&#xa4;" horiz-adv-x="1366" d="M164 225l147 144q-12 16 -24.5 30.5t-22.5 30.5q-23 35 -50.5 102.5t-27.5 161.5q0 31 10.5 101.5t59.5 154.5q25 35 53 72l-141 143l45 45l143 -141q12 10 24.5 19.5t25.5 17.5q41 29 108.5 56.5t169.5 27.5q66 0 116 -12.5t89 -30t67.5 -39t53.5 -39.5l143 143l49 -49 l-145 -143q12 -16 25.5 -30.5t23.5 -31.5q23 -37 47.5 -100t24.5 -158q0 -14 -1 -41.5t-8.5 -62.5t-20.5 -75t-38 -79q-12 -20 -25.5 -37.5t-29.5 -35.5l145 -146l-47 -47l-145 146q-16 -12 -31.5 -25.5t-32.5 -24.5q-35 -23 -99.5 -47t-160.5 -24q-41 0 -69.5 4t-45.5 8 q-35 8 -61.5 17.5t-50 22.5t-48 29.5t-53.5 39.5l-145 -144zM252 696q0 -70 18.5 -126t44 -100t55 -74.5t54.5 -49.5q35 -27 101.5 -56.5t166.5 -29.5q20 0 58 4t90 23q35 14 82 43.5t89 79t71.5 120t29.5 166.5q0 35 -11 109t-73 158q-18 23 -48 52t-72 55t-97 43t-125 17 q-16 0 -45 -2t-63.5 -10t-75.5 -25.5t-80 -45.5q-25 -18 -54.5 -49t-55 -75t-43 -100.5t-17.5 -126.5z" />
<glyph unicode="&#xa6;" d="M205 389h59v-780h-59v780zM205 631v780h59v-780h-59z" />
<glyph unicode="&#xa7;" horiz-adv-x="894" d="M25 649q0 29 10 76t53 102q14 16 32.5 35t20.5 21q29 23 53.5 39t34.5 22q-10 8 -18 15.5t-18 17.5q-20 18 -55.5 69.5t-37.5 131.5q0 16 3 44.5t20 63.5q41 102 134 147.5t196 45.5q18 0 48.5 -2t68.5 -11.5t80 -28t83 -51.5q23 -20 36 -35.5t34 -37.5l-82 -66 q-12 16 -21.5 28.5t-25.5 24.5q-12 12 -32.5 26.5t-48.5 29t-63.5 24t-80.5 9.5q-12 0 -38 -2.5t-55.5 -10.5t-61.5 -27.5t-56 -52.5q-10 -12 -24.5 -41.5t-14.5 -72.5q0 -16 8 -48t37 -67q33 -41 107.5 -89t180.5 -110q35 -20 70 -39.5t70 -42.5q70 -47 117 -108.5 t45 -151.5q0 -70 -21.5 -118t-34.5 -66q-31 -47 -60.5 -74.5t-70.5 -62.5q8 -6 24.5 -20.5t37.5 -37.5q10 -10 24.5 -28.5t27.5 -45t22.5 -60t9.5 -76.5q0 -76 -31 -135.5t-82 -99.5t-115.5 -60.5t-134.5 -20.5q-55 0 -105.5 12.5t-91 27.5t-71.5 31.5t-45 26.5 q-29 18 -42.5 31.5t-25.5 24.5l70 67q16 -12 29.5 -24.5t29.5 -24.5q12 -8 36 -22.5t56.5 -27.5t72.5 -23.5t85 -10.5q49 0 96 15.5t85 45t60.5 71.5t22.5 98q0 37 -16.5 87t-81.5 101q-39 31 -99.5 65.5t-158.5 88.5q-8 4 -28.5 15t-48.5 27.5t-57.5 37t-56.5 42.5 q-12 12 -32.5 32t-40 50.5t-33.5 70.5t-14 93zM117 647q0 -35 17.5 -84t80.5 -96q45 -35 135 -88t217 -123q14 10 28.5 21.5t29.5 23.5q47 41 82.5 99.5t35.5 125.5q0 47 -14 73t-27 40q-43 53 -144.5 110.5t-242.5 143.5q-37 -20 -72.5 -43t-63 -52.5t-45 -65.5t-17.5 -85z " />
<glyph unicode="&#xa8;" d="M-121 1042q0 35 23.5 57.5t56.5 22.5q35 0 58.5 -23.5t23.5 -58.5t-24.5 -57t-57.5 -22q-23 0 -38 9t-19 15q-23 23 -23 57zM156 1042q0 35 23.5 57.5t56.5 22.5q35 0 58 -23.5t23 -58.5t-24.5 -57t-56.5 -22q-23 0 -38.5 9t-19.5 15q-23 23 -22 57z" />
<glyph unicode="&#xa9;" horiz-adv-x="1705" d="M125 725q0 27 3 69t14.5 95t35 113.5t66.5 123.5q18 29 44.5 65t86.5 85q31 27 76 57.5t104 57t135 44t166 17.5q20 0 66.5 -2t103.5 -16q25 -6 72 -21.5t102 -44.5t113.5 -74t109.5 -110q23 -29 50.5 -74t52 -103.5t41 -131t16.5 -156.5q-2 -135 -56 -275.5t-165 -246.5 q-31 -29 -78 -65t-111.5 -66.5t-145.5 -51t-175 -20.5q-92 0 -171 19.5t-140.5 49t-107.5 62.5t-75 59q-84 76 -130 158t-69.5 155.5t-28.5 134t-5 93.5zM190 723q0 -25 4.5 -71t19.5 -103t46 -123t84 -129q29 -35 75 -76t109.5 -76.5t144.5 -60.5t179 -25q88 0 161.5 19.5 t132 48.5t101.5 60.5t70 56.5q70 66 109.5 139.5t59 140t26 119.5t6.5 78q0 31 -7.5 91t-32 133t-72.5 151t-132 145q-27 20 -67 46t-92 47.5t-117.5 36.5t-141.5 15q-94 0 -172 -21.5t-138.5 -53t-105.5 -68.5t-71 -65q-25 -27 -55.5 -69t-58.5 -99.5t-46.5 -129 t-18.5 -157.5zM410 727q0 25 5 71t31 107q57 137 175 209t249 72q20 0 55.5 -4t77 -17.5t88 -39t93.5 -70.5q25 -25 55 -66l-47 -39q-18 20 -45 51t-66 58.5t-91 47t-120 19.5q-84 0 -156.5 -31.5t-125.5 -86t-84 -127t-31 -156.5q0 -68 18.5 -121t45 -94t57.5 -69.5 t55 -45.5q23 -16 81 -41.5t138 -25.5q49 0 90 11t75 27.5t58.5 35t38.5 32.5q16 16 32 33.5t30 34.5l47 -33q-18 -25 -35.5 -44t-25.5 -28q-16 -16 -46 -38.5t-71 -43t-91 -34t-110 -13.5q-86 0 -146.5 25.5t-92.5 46.5q-74 47 -116 103.5t-63.5 111.5t-26.5 101t-5 71z" />
<glyph unicode="&#xab;" horiz-adv-x="641" d="M47 367l207 315l70 -45l-177 -266l175 -262l-72 -50zM322 371l204 311l72 -45l-176 -264l176 -269l-72 -51z" />
<glyph unicode="&#xac;" horiz-adv-x="1366" d="M0 565v62h1366v-627h-61v565h-1305z" />
<glyph unicode="&#xad;" horiz-adv-x="1366" d="M2 565v62h1360v-62h-1360z" />
<glyph unicode="&#xae;" horiz-adv-x="1705" d="M125 725q0 90 17.5 165t43 133t54 100t51.5 69q29 33 77 78t117.5 85t161.5 68.5t209 28.5q174 0 326.5 -74.5t259.5 -218.5q72 -98 107.5 -208.5t33.5 -231.5q0 -33 -5 -85t-23.5 -114.5t-53.5 -132.5t-92 -137q-72 -86 -153.5 -137.5t-157.5 -77t-140.5 -33.5 t-103.5 -8q-123 0 -236.5 39t-209.5 110q-35 27 -84.5 76t-93.5 121t-74.5 168t-30.5 217zM190 723q0 -133 50 -252q37 -94 100 -170t144 -130t175.5 -83t196.5 -29q31 0 89.5 6.5t133.5 32.5q100 35 181 97.5t137.5 144.5t88.5 179.5t32 201.5q0 27 -3.5 70t-16.5 96 t-38.5 112.5t-70.5 120.5q-25 33 -69 79t-109.5 87t-153.5 70.5t-201 29.5q-27 0 -69 -3t-94 -16t-111.5 -38.5t-118.5 -68.5q-33 -25 -80 -69t-90 -110.5t-73 -155.5t-30 -202zM594 276v893h321q55 -2 104.5 -13t90.5 -54q16 -16 35.5 -51t19.5 -93q0 -31 -9 -65.5 t-34.5 -66t-70.5 -55t-115 -32.5q41 -12 71.5 -29.5t55.5 -52.5q29 -41 37 -84t14 -90q10 -82 23.5 -127t31.5 -80l-86 3l-6 12t-8 22q-10 29 -18.5 78t-12.5 78q-6 35 -10 66.5t-18 64.5q-8 18 -23.5 41t-52.5 43q-47 27 -91 31t-93 6h-86v-445h-70zM668 780h190 q53 0 103.5 8.5t91.5 53.5q10 12 23.5 38.5t13.5 67.5q0 45 -18.5 81t-57.5 58q-35 18 -74 21.5t-111 3.5h-161v-332z" />
<glyph unicode="&#xb0;" horiz-adv-x="724" d="M80 1249q0 57 22.5 109.5t61.5 90.5t90 60.5t108 22.5t109.5 -22.5t90.5 -60.5t60.5 -90t22.5 -110q0 -27 -12 -81t-62 -107q-41 -45 -95 -68.5t-114 -23.5q-59 0 -110 22.5t-90 60.5t-60.5 89t-21.5 108zM141 1249q0 -47 17.5 -87t48.5 -69.5t70.5 -47t84.5 -17.5 q47 0 88.5 17.5t71 48t47 70.5t17.5 87q0 45 -18.5 85t-48.5 71t-71 48.5t-86 17.5t-84.5 -17.5t-70.5 -48.5t-48.5 -72t-17.5 -86z" />
<glyph unicode="&#xb1;" horiz-adv-x="1366" d="M82 0v59h1200v-59h-1200zM82 784v60h573v567h62v-567h565v-60h-565v-565h-62v565h-573z" />
<glyph unicode="&#xb4;" d="M-6 920l211 288l96 -75l-258 -254z" />
<glyph unicode="&#xb5;" horiz-adv-x="1150" d="M168 750q0 35 4 82t27 77q10 16 22 20.5t23 4.5q12 0 19 -3t11 -7q23 -18 27 -53t4 -62q0 -31 -2 -62.5t-6 -62.5q-4 -63 -12.5 -124.5t-14.5 -125.5q-4 -41 -9 -84t-13 -86q4 -8 13 -34.5t26 -51.5q6 -12 21.5 -30.5t39 -37t56 -31.5t73.5 -13q76 0 126 38.5t81 87 t44 92.5t17 54q8 41 16.5 120t8.5 187q0 84 -2 132t4 89t23.5 54.5t40.5 13.5q12 0 19 -2t11 -6q27 -16 36 -59.5t7 -106.5q0 -12 -1 -69.5t-10 -135.5t-27.5 -166t-53.5 -162q16 -41 41 -66.5t39 -33.5q16 -8 32.5 -10t22.5 -2q35 0 54.5 15t27.5 35.5t9 40t1 25.5v20.5 t-2 20.5h37q6 -18 15.5 -50t9.5 -81q0 -41 -14.5 -86t-51.5 -67q-8 -4 -21 -8.5t-36 -4.5q-20 0 -52 10.5t-65 47.5q-10 10 -33.5 50t-37.5 87q-10 -16 -20.5 -30.5t-22.5 -28.5q-35 -45 -70 -73t-68.5 -43t-63.5 -20.5t-54 -5.5q-35 0 -57.5 6.5t-37.5 12.5q-14 6 -35.5 18 t-44 32.5t-44 50.5t-37.5 69q0 -10 -2.5 -52.5t0 -100.5t11.5 -122.5t32 -120.5q12 -35 30.5 -65.5t36.5 -61.5q23 -35 33 -56t10 -44q0 -29 -15.5 -49.5t-45.5 -20.5q-23 0 -39.5 10.5t-26.5 24t-16 26.5t-8 17q-25 55 -41.5 143.5t-16.5 225.5q0 53 5 134t22 204 q-14 76 -21.5 156.5t-11.5 150.5t-5 122t-1 71z" />
<glyph unicode="&#xb6;" horiz-adv-x="1366" d="M190 1067q0 16 3.5 46t15.5 71q18 57 48 99t63.5 69.5t64.5 44t51 22.5t39 11.5t41.5 8.5t51 4t69.5 3h428v-60h-68v-1728h-59v1728h-356v-1728h-60l-2 1053q-53 4 -93 13t-87 44q-53 37 -83 83t-45 89t-18.5 77t-3.5 50z" />
<glyph unicode="&#xb7;" horiz-adv-x="382" d="M90 598q0 8 1 14t5 19q8 18 28.5 41.5t68.5 23.5q4 0 14 -1t22 -5q29 -12 46.5 -40.5t17.5 -55.5q0 -43 -28.5 -70.5t-71.5 -29.5q-43 0 -73 29.5t-30 74.5z" />
<glyph unicode="&#xb8;" d="M-10 -272l149 249l88 -63l-186 -221z" />
<glyph unicode="&#xbb;" horiz-adv-x="641" d="M41 631l72 51l204 -315l-204 -312l-70 45l174 265zM315 100l177 267l-175 260l72 51l203 -311l-205 -314z" />
<glyph unicode="&#xbf;" horiz-adv-x="854" d="M47 324q0 51 15.5 113.5t68.5 154.5q16 27 41 64.5t68 88.5q55 70 122 138v215h107l-2 -230q-25 -29 -50.5 -57.5t-49.5 -56.5q-4 -4 -23.5 -28t-44.5 -56.5t-49.5 -71.5t-42.5 -76q-10 -23 -29.5 -73t-19.5 -121q0 -12 3 -39t13 -60q29 -78 98.5 -115.5t147.5 -37.5 q66 0 110.5 21.5t74.5 52t46.5 62.5t26.5 50l82 -37q-6 -12 -15.5 -35.5t-27 -50t-42 -54.5t-61.5 -50q-29 -18 -78 -35.5t-126 -17.5q-18 0 -60.5 4t-91.5 22q-27 8 -62.5 30.5t-68.5 60.5t-56.5 93.5t-23.5 131.5zM324 1376q0 39 27.5 64.5t64.5 25.5q38 1 65 -26t27 -66 t-27.5 -65.5t-64.5 -26.5q-41 0 -66.5 27.5t-25.5 66.5z" />
<glyph unicode="&#xc0;" horiz-adv-x="1150" d="M-2 0l565 1511q6 14 17 15q8 0 14 -15l557 -1511h-119l-194 543h-521l-200 -543h-119zM350 643h451l-148 410q-20 59 -38.5 116.5t-36.5 116.5q-14 -45 -27.5 -89t-30.5 -87zM371 1735l100 96l272 -232l-47 -47z" />
<glyph unicode="&#xc1;" horiz-adv-x="1150" d="M-2 0l565 1511q6 14 17 15q8 0 14 -15l557 -1511h-119l-194 543h-521l-200 -543h-119zM350 643h451l-148 410q-20 59 -38.5 116.5t-36.5 116.5q-14 -45 -27.5 -89t-30.5 -87zM395 1597l271 234l100 -96l-322 -183z" />
<glyph unicode="&#xc2;" horiz-adv-x="1150" d="M-2 0l565 1511q6 14 17 15q8 0 14 -15l557 -1511h-119l-194 543h-521l-200 -543h-119zM297 1593l227 238h101l237 -238l-53 -47l-231 197l-232 -199zM350 643h451l-148 410q-20 59 -38.5 116.5t-36.5 116.5q-14 -45 -27.5 -89t-30.5 -87z" />
<glyph unicode="&#xc3;" horiz-adv-x="1150" d="M-2 0l565 1511q6 14 17 15q8 0 14 -15l557 -1511h-119l-194 543h-521l-200 -543h-119zM279 1626q27 55 61.5 98t95.5 43q27 0 60.5 -14t91.5 -43q37 -18 61.5 -27.5t48.5 -9.5q29 0 48.5 25.5t39.5 70.5l72 -38q-8 -14 -20.5 -37t-22.5 -37q-10 -12 -38.5 -40t-76.5 -28 q-25 0 -55.5 12.5t-66.5 30.5q-47 23 -80 37t-56 14q-25 0 -46 -22.5t-48 -69.5zM350 643h451l-148 410q-20 59 -38.5 116.5t-36.5 116.5q-14 -45 -27.5 -89t-30.5 -87z" />
<glyph unicode="&#xc4;" horiz-adv-x="1150" d="M-2 0l565 1511q6 14 17 15q8 0 14 -15l557 -1511h-119l-194 543h-521l-200 -543h-119zM268 1702q0 39 27 65.5t67 26.5q39 -2 65 -28.5t26 -65.5t-28 -64.5t-65 -25.5q-8 0 -27.5 4t-37.5 22t-22.5 37t-4.5 29zM350 643h451l-148 410q-23 57 -40 115.5t-35 117.5 q-14 -45 -27.5 -89t-30.5 -87zM686 1702q0 39 26.5 65.5t65.5 26.5q39 -2 65.5 -28.5t26.5 -65.5t-27.5 -64.5t-64.5 -25.5q-10 0 -28.5 4t-36.5 22t-22.5 37t-4.5 29z" />
<glyph unicode="&#xc5;" horiz-adv-x="1150" d="M-2 0l565 1511q6 14 17 15q8 0 14 -15l557 -1511h-119l-194 543h-521l-200 -543h-119zM350 643h451l-148 410q-10 25 -18 50t-19 52q-10 33 -19 65.5t-19 65.5q-14 -45 -27.5 -89t-30.5 -87zM412 1735q2 70 50 116.5t113 46.5q70 0 117 -48t47 -115q0 -68 -48 -116 t-116 -48q-47 0 -75.5 18.5t-38.5 30.5q-33 33 -41 65.5t-8 49.5zM473 1735q0 -43 31 -74q6 -6 24.5 -17.5t46.5 -11.5q45 0 74 31t29 72q0 43 -31 72.5t-72 29.5q-43 0 -72.5 -30.5t-29.5 -71.5z" />
<glyph unicode="&#xc6;" horiz-adv-x="1835" d="M4 0l823 1446h938l-32 -105l-725 13v-715l757 2l-39 -96h-718v-457l796 12l-32 -100h-873v545h-469l-309 -545h-117zM481 639h418v737z" />
<glyph unicode="&#xc7;" horiz-adv-x="1409" d="M74 715q0 23 2 57.5t12 85.5q8 51 38 137t107 189q111 139 263.5 215t330.5 76q102 0 186.5 -21.5t150 -52.5t113.5 -62.5t79 -52.5l-70 -84q-23 16 -43 30.5t-43 31.5q-16 10 -52 29.5t-85 38t-108.5 32.5t-125.5 14q-29 0 -69.5 -4t-91 -17.5t-107.5 -40t-115 -69.5 q-35 -27 -79.5 -70.5t-84.5 -108t-69 -152t-29 -199.5q0 -37 8.5 -107.5t45.5 -156.5q39 -90 101 -161t141 -122t170 -77.5t188 -26.5q123 0 209 33.5t124 58.5q23 14 37.5 27.5t20.5 19.5q12 10 24.5 22.5l24.5 24.5l78 -82q-39 -35 -82 -69.5t-101.5 -63.5t-137.5 -48.5 t-187 -23.5l74 -51l-187 -221l-53 35l143 237q-41 2 -80.5 5t-76.5 12q-29 6 -72 19t-94 37.5t-107.5 63.5t-111.5 97q-25 27 -61 72.5t-68.5 110t-56 147.5t-23.5 186z" />
<glyph unicode="&#xc8;" horiz-adv-x="1067" d="M133 0v1446h866l-32 -100l-725 8v-715l755 4l-34 -94l-719 4v-463l796 10l-34 -100h-873zM371 1735l100 96l272 -232l-47 -47z" />
<glyph unicode="&#xc9;" horiz-adv-x="1067" d="M133 0v1446h866l-32 -100l-725 8v-715l755 4l-34 -94l-719 4v-463l796 10l-34 -100h-873zM395 1597l271 234l100 -96l-322 -183z" />
<glyph unicode="&#xca;" horiz-adv-x="1067" d="M133 0v1446h866l-32 -100l-725 8v-715l755 4l-34 -94l-719 4v-463l796 10l-34 -100h-873zM297 1593l227 238h101l237 -238l-53 -47l-231 197l-232 -199z" />
<glyph unicode="&#xcb;" horiz-adv-x="1067" d="M133 0v1446h866l-32 -100l-725 8v-715l755 4l-34 -94l-719 4v-463l796 10l-34 -100h-873zM266 1702q0 39 26.5 65.5t67.5 26.5q39 -2 65 -28.5t26 -65.5t-28 -64.5t-65 -25.5q-8 0 -27.5 4t-37.5 22t-22.5 37t-4.5 29zM684 1702q0 39 26.5 65.5t65.5 26.5 q39 -2 65.5 -28.5t26.5 -65.5t-27.5 -64.5t-64.5 -25.5q-10 0 -28.5 4t-36.5 22t-22.5 37t-4.5 29z" />
<glyph unicode="&#xcc;" horiz-adv-x="382" d="M-12 1735l100 96l270 -232l-45 -47zM131 0q6 258 6 512v651q-2 72 -2 141.5v141.5h119q-4 -72 -6 -145.5t-2 -145.5v-870q0 -72 1 -142.5t3 -142.5h-119z" />
<glyph unicode="&#xcd;" horiz-adv-x="382" d="M10 1597l271 234l100 -96l-322 -183zM131 0q6 258 6 512v651q-2 72 -2 141.5v141.5h119q-4 -72 -6 -145.5t-2 -145.5v-870q0 -72 1 -142.5t3 -142.5h-119z" />
<glyph unicode="&#xce;" horiz-adv-x="382" d="M-86 1593l225 238h103l237 -238l-53 -47l-233 197l-232 -199zM131 0q6 258 6 512v651q-2 72 -2 141.5v141.5h119q-4 -72 -6 -145.5t-2 -145.5v-870q0 -72 1 -142.5t3 -142.5h-119z" />
<glyph unicode="&#xcf;" horiz-adv-x="382" d="M-117 1702q0 39 27 65.5t65 26.5q39 -2 66 -28.5t27 -65.5t-28 -64.5t-65 -25.5q-10 0 -29.5 4t-37.5 22q-16 18 -20.5 37t-4.5 29zM131 0q6 258 6 512v651q-2 72 -2 141.5v141.5h119q-4 -72 -6 -145.5t-2 -145.5v-870q0 -72 1 -142.5t3 -142.5h-119zM299 1702 q2 39 28.5 65.5t65.5 26.5q39 -2 65.5 -28.5t26.5 -65.5q-2 -39 -28.5 -64.5t-65.5 -25.5q-8 0 -27.5 4t-37.5 22q-16 18 -21.5 37t-5.5 29z" />
<glyph unicode="&#xd1;" horiz-adv-x="1280" d="M129 0q2 117 3 243t1 273v922q0 4 2 8t6 4q2 -2 4 -3t7 -5l493 -643q66 -86 131.5 -171t130.5 -173q18 -25 36 -48.5t34 -46.5q23 -29 40 -56.5t36 -53.5q-4 53 -5 108.5t-6 126.5q-2 92 -2 208t-2 241v119.5v117t-1 104.5t-3 85q0 25 -1 45t-3 41h117q-2 -47 -3 -95 t-3 -112q0 -49 1 -104.5t1 -112.5v-1016q-4 -8 -6 -8q-4 2 -11 10l-768 1004q-35 47 -65.5 89t-61.5 87q2 -98 3.5 -216t3.5 -270v-299q0 -125 1 -223t5 -180h-115zM344 1626q27 55 60.5 98t95.5 43q27 0 61.5 -14t89.5 -43q39 -18 62.5 -27.5t50.5 -9.5t46 25.5t42 70.5 l70 -38q-6 -14 -19.5 -37t-23.5 -37q-8 -12 -38 -40t-77 -28q-25 0 -55.5 12.5t-67.5 30.5q-45 23 -78 37t-57 14q-25 0 -46.5 -22.5t-47.5 -69.5z" />
<glyph unicode="&#xd2;" horiz-adv-x="1662" d="M74 721q0 33 6 87t25.5 119.5t55.5 138.5t95 144q106 125 258 196t317 71q33 0 87.5 -6.5t120 -25t138 -54t144.5 -97.5q125 -106 195.5 -257.5t70.5 -317.5q0 -35 -6 -90.5t-26.5 -123t-59.5 -142t-102 -146.5q-106 -121 -255 -186.5t-309 -65.5q-37 0 -96 7.5t-132 30 t-151.5 66t-152.5 117.5q-104 104 -163.5 245.5t-59.5 289.5zM182 719q0 -31 6.5 -82t25.5 -114.5t57.5 -132.5t101.5 -132q23 -23 63.5 -55.5t98 -62t131 -51t163.5 -21.5q27 0 71 4t98.5 19t115 44t119.5 78q115 92 178.5 226t63.5 282q0 117 -41 227.5t-117 200.5 q-92 104 -220 163.5t-268 59.5q-29 0 -74.5 -5t-101 -20.5t-116 -45t-121.5 -80.5q-111 -92 -172.5 -224.5t-61.5 -277.5zM627 1735l100 96l272 -232l-47 -47z" />
<glyph unicode="&#xd3;" horiz-adv-x="1662" d="M74 721q0 33 6 87t25.5 119.5t55.5 138.5t95 144q106 125 258 196t317 71q33 0 87.5 -6.5t120 -25t138 -54t144.5 -97.5q125 -106 195.5 -257.5t70.5 -317.5q0 -35 -6 -90.5t-26.5 -123t-59.5 -142t-102 -146.5q-106 -121 -255 -186.5t-309 -65.5q-37 0 -96 7.5t-132 30 t-151.5 66t-152.5 117.5q-104 104 -163.5 245.5t-59.5 289.5zM182 719q0 -31 6.5 -82t25.5 -114.5t57.5 -132.5t101.5 -132q23 -23 63.5 -55.5t98 -62t131 -51t163.5 -21.5q27 0 71 4t98.5 19t115 44t119.5 78q115 92 178.5 226t63.5 282q0 117 -41 227.5t-117 200.5 q-92 104 -220 163.5t-268 59.5q-29 0 -74.5 -5t-101 -20.5t-116 -45t-121.5 -80.5q-111 -92 -172.5 -224.5t-61.5 -277.5zM651 1597l271 234l100 -96l-322 -183z" />
<glyph unicode="&#xd4;" horiz-adv-x="1662" d="M74 721q0 33 6 87t25.5 119.5t55.5 138.5t95 144q106 125 258 196t317 71q33 0 87.5 -6.5t120 -25t138 -54t144.5 -97.5q125 -106 195.5 -257.5t70.5 -317.5q0 -35 -6 -90.5t-26.5 -123t-59.5 -142t-102 -146.5q-106 -121 -255 -186.5t-309 -65.5q-37 0 -96 7.5t-132 30 t-151.5 66t-152.5 117.5q-104 104 -163.5 245.5t-59.5 289.5zM182 719q0 -31 6.5 -82t25.5 -114.5t57.5 -132.5t101.5 -132q23 -23 63.5 -55.5t98 -62t131 -51t163.5 -21.5q27 0 71 4t98.5 19t115 44t119.5 78q115 92 178.5 226t63.5 282q0 117 -41 227.5t-117 200.5 q-92 104 -220 163.5t-268 59.5q-29 0 -74.5 -5t-101 -20.5t-116 -45t-121.5 -80.5q-111 -92 -172.5 -224.5t-61.5 -277.5zM553 1593l227 238h101l237 -238l-53 -47l-231 197l-232 -199z" />
<glyph unicode="&#xd5;" horiz-adv-x="1662" d="M74 721q0 33 6 87t25.5 119.5t55.5 138.5t95 144q106 125 258 196t317 71q33 0 87.5 -6.5t120 -25t138 -54t144.5 -97.5q125 -106 195.5 -257.5t70.5 -317.5q0 -35 -6 -90.5t-26.5 -123t-59.5 -142t-102 -146.5q-106 -121 -255 -186.5t-309 -65.5q-37 0 -96 7.5t-132 30 t-151.5 66t-152.5 117.5q-104 104 -163.5 245.5t-59.5 289.5zM182 719q0 -31 6.5 -82t25.5 -114.5t57.5 -132.5t101.5 -132q23 -23 63.5 -55.5t98 -62t131 -51t163.5 -21.5q27 0 71 4t98.5 19t115 44t119.5 78q115 92 178.5 226t63.5 282q0 117 -41 227.5t-117 200.5 q-92 104 -220 163.5t-268 59.5q-29 0 -74.5 -5t-101 -20.5t-116 -45t-121.5 -80.5q-111 -92 -172.5 -224.5t-61.5 -277.5zM535 1626q27 55 61.5 98t95.5 43q27 0 60.5 -14t91.5 -43q37 -18 61.5 -27.5t48.5 -9.5q29 0 48.5 25.5t39.5 70.5l72 -38q-8 -14 -20.5 -37 t-22.5 -37q-10 -12 -38.5 -40t-76.5 -28q-25 0 -55.5 12.5t-66.5 30.5q-47 23 -80 37t-56 14q-25 0 -46 -22.5t-48 -69.5z" />
<glyph unicode="&#xd6;" horiz-adv-x="1662" d="M74 721q0 33 6 87t25.5 119.5t55.5 138.5t95 144q106 125 258 196t317 71q33 0 87.5 -6.5t120 -25t138 -54t144.5 -97.5q125 -106 195.5 -257.5t70.5 -317.5q0 -35 -6 -90.5t-26.5 -123t-59.5 -142t-102 -146.5q-106 -121 -255 -186.5t-309 -65.5q-37 0 -96 7.5t-132 30 t-151.5 66t-152.5 117.5q-104 104 -163.5 245.5t-59.5 289.5zM182 719q0 -31 6.5 -82t25.5 -114.5t57.5 -132.5t101.5 -132q23 -23 63.5 -55.5t98 -62t131 -51t163.5 -21.5q27 0 71 4t98.5 19t115 44t119.5 78q115 92 178.5 226t63.5 282q0 117 -41 227.5t-117 200.5 q-92 104 -220 163.5t-268 59.5q-29 0 -74.5 -5t-101 -20.5t-116 -45t-121.5 -80.5q-111 -92 -172.5 -224.5t-61.5 -277.5zM532 1702q0 39 27 65.5t68 26.5q39 -2 64.5 -28.5t25.5 -65.5t-27.5 -64.5t-64.5 -25.5q-8 0 -28 4t-38 22t-22.5 37t-4.5 29zM950 1702q0 39 27 65.5 t65 26.5q39 -2 66 -28.5t27 -65.5t-28 -64.5t-65 -25.5q-10 0 -29.5 4t-35.5 22q-18 18 -22.5 37t-4.5 29z" />
<glyph unicode="&#xd7;" horiz-adv-x="1366" d="M193 147l446 449l-446 448l40 43l449 -448l448 448l44 -43l-447 -448l447 -449l-44 -45l-448 449l-449 -449z" />
<glyph unicode="&#xd8;" horiz-adv-x="1662" d="M76 719q0 33 4 85t21.5 114.5t50 133t88.5 140.5q111 135 262 209t327 74q27 0 71 -3.5t98.5 -15.5t116 -35.5t122.5 -62.5q25 -16 48.5 -34.5t45.5 -37.5l187 187l65 -66l-188 -188q10 -12 20 -23.5t21 -24.5q72 -98 110.5 -212.5t38.5 -235.5q0 -29 -4 -75 t-17.5 -102.5t-39 -120t-68.5 -128.5q-53 -76 -101 -119t-77 -65q-68 -49 -134.5 -79t-126 -45.5t-107.5 -19.5t-79 -4q-27 0 -69.5 3t-96 15.5t-112.5 35t-121 61.5q-16 10 -40.5 28.5t-59.5 47.5l-187 -189l-63 64l184 188q-16 20 -32.5 41t-30.5 43q-16 25 -38 64 t-42.5 91t-33.5 117.5t-13 143.5zM174 727q0 -43 9.5 -108.5t47.5 -157.5q14 -31 23.5 -51.5t28.5 -49.5q12 -20 25.5 -37.5t27.5 -35.5l921 930q-33 27 -50 39t-36 24q-41 27 -129 60.5t-217 33.5q-231 0 -409 -147q-27 -23 -68 -65t-80 -105.5t-66.5 -145.5t-27.5 -184z M401 223q10 -10 31 -26.5t49 -34.5q78 -49 169 -74t184 -25q31 0 73.5 4.5t95 17.5t110.5 41t120 77q68 53 109.5 109.5t68.5 109.5t39 99t18 79q2 16 7.5 54t5.5 85q0 31 -4 76t-20.5 100.5t-48.5 115t-85 118.5z" />
<glyph unicode="&#xd9;" horiz-adv-x="1409" d="M104 1446h119q-6 -182 -6 -367v-391v-111.5t7 -110.5t23.5 -105.5t49.5 -100.5q18 -29 51 -64.5t82 -66.5t116.5 -51.5t155.5 -20.5q27 0 85.5 6.5t125 32t130 78.5t102.5 148q33 78 38 154.5t3 160.5v219v183t-2 184q-2 55 -3 111.5t-3 111.5h120q-6 -123 -6 -246v-354 q2 -133 0 -264q-2 -104 -16 -200.5t-78 -188.5q-25 -37 -66.5 -77t-102 -72t-142.5 -53.5t-189 -21.5q-29 0 -81 3t-115.5 20.5t-132 54.5t-125.5 105q-16 16 -42 53t-48 94q-31 82 -36 174t-7 178v217q0 289 -7 578zM500 1735l100 96l270 -232l-45 -47z" />
<glyph unicode="&#xda;" horiz-adv-x="1409" d="M104 1446h119q-6 -182 -6 -367v-391v-111.5t7 -110.5t23.5 -105.5t49.5 -100.5q18 -29 51 -64.5t82 -66.5t116.5 -51.5t155.5 -20.5q27 0 85.5 6.5t125 32t130 78.5t102.5 148q33 78 38 154.5t3 160.5v219v183t-2 184q-2 55 -3 111.5t-3 111.5h120q-6 -123 -6 -246v-354 q2 -133 0 -264q-2 -104 -16 -200.5t-78 -188.5q-25 -37 -66.5 -77t-102 -72t-142.5 -53.5t-189 -21.5q-29 0 -81 3t-115.5 20.5t-132 54.5t-125.5 105q-16 16 -42 53t-48 94q-31 82 -36 174t-7 178v217q0 289 -7 578zM522 1597l271 234l100 -96l-322 -183z" />
<glyph unicode="&#xdb;" horiz-adv-x="1409" d="M104 1446h119q-6 -182 -6 -367v-391v-111.5t7 -110.5t23.5 -105.5t49.5 -100.5q18 -29 51 -64.5t82 -66.5t116.5 -51.5t155.5 -20.5q27 0 85.5 6.5t125 32t130 78.5t102.5 148q33 78 38 154.5t3 160.5v219v183t-2 184q-2 55 -3 111.5t-3 111.5h120q-6 -123 -6 -246v-354 q2 -133 0 -264q-2 -104 -16 -200.5t-78 -188.5q-25 -37 -66.5 -77t-102 -72t-142.5 -53.5t-189 -21.5q-29 0 -81 3t-115.5 20.5t-132 54.5t-125.5 105q-16 16 -42 53t-48 94q-31 82 -36 174t-7 178v217q0 289 -7 578zM426 1593l225 238h103l237 -238l-53 -47l-233 197 l-232 -199z" />
<glyph unicode="&#xdc;" horiz-adv-x="1409" d="M104 1446h119q-6 -182 -6 -367v-391v-111.5t7 -110.5t23.5 -105.5t49.5 -100.5q18 -29 51 -64.5t82 -66.5t116.5 -51.5t155.5 -20.5q27 0 85.5 6.5t125 32t130 78.5t102.5 148q33 78 38 154.5t3 160.5v219v183t-2 184q-2 55 -3 111.5t-3 111.5h120q-6 -123 -6 -246v-354 q2 -133 0 -264q-2 -104 -16 -200.5t-78 -188.5q-25 -37 -66.5 -77t-102 -72t-142.5 -53.5t-189 -21.5q-29 0 -81 3t-115.5 20.5t-132 54.5t-125.5 105q-16 16 -42 53t-48 94q-31 82 -36 174t-7 178v217q0 289 -7 578zM401 1702q0 39 27 65.5t66 26.5q39 -2 65.5 -28.5 t26.5 -65.5t-28 -64.5t-66 -25.5q-8 0 -28 4t-38 22q-16 18 -20.5 37t-4.5 29zM817 1702q2 39 28.5 65.5t65.5 26.5q39 -2 64.5 -28.5t25.5 -65.5t-26.5 -64.5t-65.5 -25.5q-8 0 -27.5 4t-37.5 22q-16 18 -21.5 37t-5.5 29z" />
<glyph unicode="&#xdf;" horiz-adv-x="937" d="M119 0v219.5t2 218.5v695v39.5t5 61.5t18.5 71.5t37.5 72.5q12 16 34 38t54.5 41.5t75.5 32.5t98 13q80 0 143.5 -27.5t108.5 -76.5t70 -115.5t25 -142.5q0 -14 -3.5 -46t-13.5 -70t-30.5 -80t-57.5 -75q-16 -16 -36.5 -28.5t-59.5 -32.5q35 -10 60.5 -20.5t54.5 -28.5 q88 -55 127.5 -144.5t39.5 -191.5q0 -12 -1 -39t-7 -59q-6 -31 -22.5 -76t-50 -92t-89 -88t-139.5 -60q-14 -4 -37.5 -8t-58.5 -4q-29 0 -54.5 3t-54.5 7l2 96q31 -10 54.5 -15t56.5 -5q18 0 56 5t83 28q39 20 70 54t52.5 74t32.5 85t11 88q0 113 -64.5 202t-174.5 119 q-35 8 -72 12.5t-107 4.5v90q68 2 104 6t64 14q41 16 72 46t50.5 68t29.5 81t10 84q0 20 -7 67.5t-40 98.5q-23 37 -50.5 56t-53 29.5t-49 12.5t-39.5 2q-55 0 -95.5 -17.5t-67 -43t-40 -53t-19.5 -46.5q-8 -29 -10 -63.5t-2 -63.5v-657v-205.5t2 -206.5v-27.5t2 -27.5h-100 z" />
<glyph unicode="&#xe0;" horiz-adv-x="811" d="M63 272q0 16 2.5 43t14.5 62q8 25 28.5 57.5t55.5 61t86 49t123 20.5q76 0 128 -21.5t74 -37.5q10 -8 17.5 -15.5t17.5 -15.5q0 16 -1 29.5t-1 30.5q-2 31 -10 64.5t-30.5 62t-64.5 48t-114 19.5q-88 0 -145.5 -27.5t-85.5 -44.5l-35 78q12 8 24.5 15.5t26.5 13.5 q29 14 86 31.5t139 17.5q12 0 34 -1t49.5 -7t58 -18.5t59.5 -34.5q43 -35 65.5 -81t31 -96.5t8.5 -104.5v-103v-70t3 -79t7 -78t14 -68q4 -16 8 -24.5t15 -31.5l-99 -36q-6 18 -11 31.5t-8 24.5t-5 24.5t-6 33.5q-14 -14 -36 -33.5t-52.5 -38t-71.5 -32t-92 -13.5 q-20 0 -51 2.5t-72 18.5q-61 25 -98 61.5t-56.5 76.5t-25 77t-5.5 59zM164 281q0 -29 8 -66t32.5 -68.5t68.5 -54t116 -22.5q90 0 153.5 54t63.5 148q0 70 -28.5 111t-65.5 62.5t-75 26.5t-58 5q-16 0 -44 -4t-63 -20q-14 -6 -32.5 -18.5t-36 -33t-28.5 -50t-11 -70.5z M205 1130l94 78l213 -288l-49 -41z" />
<glyph unicode="&#xe1;" horiz-adv-x="811" d="M63 272q0 16 2.5 43t14.5 62q8 25 28.5 57.5t55.5 61t86 49t123 20.5q76 0 128 -21.5t74 -37.5q10 -8 17.5 -15.5t17.5 -15.5q0 16 -1 29.5t-1 30.5q-2 31 -10 64.5t-30.5 62t-64.5 48t-114 19.5q-88 0 -145.5 -27.5t-85.5 -44.5l-35 78q12 8 24.5 15.5t26.5 13.5 q29 14 86 31.5t139 17.5q12 0 34 -1t49.5 -7t58 -18.5t59.5 -34.5q43 -35 65.5 -81t31 -96.5t8.5 -104.5v-103v-70t3 -79t7 -78t14 -68q4 -16 8 -24.5t15 -31.5l-99 -36q-6 18 -11 31.5t-8 24.5t-5 24.5t-6 33.5q-14 -14 -36 -33.5t-52.5 -38t-71.5 -32t-92 -13.5 q-20 0 -51 2.5t-72 18.5q-61 25 -98 61.5t-56.5 76.5t-25 77t-5.5 59zM164 281q0 -29 8 -66t32.5 -68.5t68.5 -54t116 -22.5q90 0 153.5 54t63.5 148q0 70 -28.5 111t-65.5 62.5t-75 26.5t-58 5q-16 0 -44 -4t-63 -20q-14 -6 -32.5 -18.5t-36 -33t-28.5 -50t-11 -70.5z M293 920l211 288l96 -75l-258 -254z" />
<glyph unicode="&#xe2;" horiz-adv-x="811" d="M63 272q0 16 2.5 43t14.5 62q8 25 28.5 57.5t55.5 61t86 49t123 20.5q76 0 128 -21.5t74 -37.5q10 -8 17.5 -15.5t17.5 -15.5q0 16 -1 29.5t-1 30.5q-2 31 -10 64.5t-30.5 62t-64.5 48t-114 19.5q-88 0 -145.5 -27.5t-85.5 -44.5l-35 78q12 8 24.5 15.5t26.5 13.5 q29 14 86 31.5t139 17.5q12 0 34 -1t49.5 -7t58 -18.5t59.5 -34.5q43 -35 65.5 -81t31 -96.5t8.5 -104.5v-103v-70t3 -79t7 -78t14 -68q4 -16 8 -24.5t15 -31.5l-99 -36q-6 18 -11 31.5t-8 24.5t-5 24.5t-6 33.5q-14 -14 -36 -33.5t-52.5 -38t-71.5 -32t-92 -13.5 q-20 0 -51 2.5t-72 18.5q-61 25 -98 61.5t-56.5 76.5t-25 77t-5.5 59zM164 281q0 -29 8 -66t32.5 -68.5t68.5 -54t116 -22.5q90 0 153.5 54t63.5 148q0 70 -28.5 111t-65.5 62.5t-75 26.5t-58 5q-16 0 -44 -4t-63 -20q-14 -6 -32.5 -18.5t-36 -33t-28.5 -50t-11 -70.5z M170 909l182 297h107l188 -297l-65 -43l-176 254l-170 -256z" />
<glyph unicode="&#xe3;" horiz-adv-x="811" d="M63 272q0 16 2.5 43t14.5 62q8 25 28.5 57.5t55.5 61t86 49t123 20.5q76 0 128 -21.5t74 -37.5q10 -8 17.5 -15.5t17.5 -15.5q0 16 -1 29.5t-1 30.5q-2 31 -10 64.5t-30.5 62t-64.5 48t-114 19.5q-88 0 -145.5 -27.5t-85.5 -44.5l-35 78q12 8 24.5 15.5t26.5 13.5 q29 14 86 31.5t139 17.5q12 0 34 -1t49.5 -7t58 -18.5t59.5 -34.5q43 -35 65.5 -81t31 -96.5t8.5 -104.5v-103v-70t3 -79t7 -78t14 -68q4 -16 8 -24.5t15 -31.5l-99 -36q-6 18 -11 31.5t-8 24.5t-5 24.5t-6 33.5q-14 -14 -36 -33.5t-52.5 -38t-71.5 -32t-92 -13.5 q-20 0 -51 2.5t-72 18.5q-61 25 -98 61.5t-56.5 76.5t-25 77t-5.5 59zM147 1006q33 70 65 99.5t73 29.5t79.5 -17.5t69.5 -32.5q16 -8 35.5 -17t36.5 -9q25 0 41 19.5t37 60.5l78 -33q-8 -16 -13 -27q-27 -63 -63.5 -83.5t-71.5 -20.5q-41 0 -76 17.5t-73 33.5 q-4 2 -29 12.5t-43 10.5q-10 0 -17.5 -4.5t-11.5 -6.5q-23 -18 -32 -39.5t-11 -25.5zM164 281q0 -29 8 -66t32.5 -68.5t68.5 -54t116 -22.5q90 0 153.5 54t63.5 148q0 70 -28.5 111t-65.5 62.5t-75 26.5t-58 5q-16 0 -44 -4t-63 -20q-14 -6 -32.5 -18.5t-36 -33t-28.5 -50 t-11 -70.5z" />
<glyph unicode="&#xe4;" horiz-adv-x="811" d="M63 272q0 16 2.5 43t14.5 62q8 25 28.5 57.5t55.5 61t86 49t123 20.5q76 0 128 -21.5t74 -37.5q10 -8 17.5 -15.5t17.5 -15.5q0 16 -1 29.5t-1 30.5q-2 31 -10 64.5t-30.5 62t-64.5 48t-114 19.5q-88 0 -145.5 -27.5t-85.5 -44.5l-35 78q12 8 24.5 15.5t26.5 13.5 q29 14 86 31.5t139 17.5q12 0 34 -1t49.5 -7t58 -18.5t59.5 -34.5q43 -35 65.5 -81t31 -96.5t8.5 -104.5v-103v-70t3 -79t7 -78t14 -68q4 -16 8 -24.5t15 -31.5l-99 -36q-6 18 -11 31.5t-8 24.5t-5 24.5t-6 33.5q-14 -14 -36 -33.5t-52.5 -38t-71.5 -32t-92 -13.5 q-20 0 -51 2.5t-72 18.5q-61 25 -98 61.5t-56.5 76.5t-25 77t-5.5 59zM164 281q0 -29 8 -66t32.5 -68.5t68.5 -54t116 -22.5q90 0 153.5 54t63.5 148q0 70 -28.5 111t-65.5 62.5t-75 26.5t-58 5q-16 0 -44 -4t-63 -20q-14 -6 -32.5 -18.5t-36 -33t-28.5 -50t-11 -70.5z M190 1042q0 35 24 57.5t58 22.5q35 0 57.5 -23.5t22.5 -58.5t-23.5 -57t-58.5 -22q-23 0 -37 9t-20 15q-23 23 -23 57zM467 1042q2 35 24.5 57.5t57.5 22.5t58.5 -23.5t23.5 -58.5q-2 -35 -25.5 -57t-56.5 -22q-23 0 -38 9t-19 15q-25 25 -25 57z" />
<glyph unicode="&#xe5;" horiz-adv-x="811" d="M63 272q0 16 2.5 43t14.5 62q8 25 28.5 57.5t55.5 61t86 49t123 20.5q76 0 128 -21.5t74 -37.5q10 -8 17.5 -15.5t17.5 -15.5q0 16 -1 29.5t-1 30.5q-2 31 -10 64.5t-30.5 62t-64.5 48t-114 19.5q-88 0 -145.5 -27.5t-85.5 -44.5l-35 78q12 8 24.5 15.5t26.5 13.5 q29 14 86 31.5t139 17.5q12 0 34 -1t49.5 -7t58 -18.5t59.5 -34.5q43 -35 65.5 -81t31 -96.5t8.5 -104.5v-103v-70t3 -79t7 -78t14 -68q4 -16 8 -24.5t15 -31.5l-99 -36q-6 18 -11 31.5t-8 24.5t-5 24.5t-6 33.5q-14 -14 -36 -33.5t-52.5 -38t-71.5 -32t-92 -13.5 q-20 0 -51 2.5t-72 18.5q-61 25 -98 61.5t-56.5 76.5t-25 77t-5.5 59zM164 281q0 -29 8 -66t32.5 -68.5t68.5 -54t116 -22.5q90 0 153.5 54t63.5 148q0 70 -28.5 111t-65.5 62.5t-75 26.5t-58 5q-16 0 -44 -4t-63 -20q-14 -6 -32.5 -18.5t-36 -33t-28.5 -50t-11 -70.5z M252 1040q0 68 49 115t115 47q70 0 116 -48t46 -116t-48.5 -114.5t-115.5 -46.5q-45 0 -74 18.5t-41 30.5q-33 31 -40 64.5t-7 49.5zM311 1038q0 -44 31 -71q8 -8 26.5 -19.5t47.5 -11.5q43 0 72.5 30.5t29.5 73.5q0 41 -30.5 72t-73.5 31t-73 -32t-30 -73z" />
<glyph unicode="&#xe6;" horiz-adv-x="1449" d="M63 272q0 68 24 123.5t65 93t98 59t123 21.5q63 0 107 -16t65 -27q23 -12 35 -22t30 -27q0 33 -2 65.5t-11 63.5t-28.5 55.5t-52.5 43.5q-16 8 -46 17t-75 9q-92 0 -150.5 -27.5t-86.5 -44.5l-35 78q8 4 16 9.5t19 9.5q53 29 116.5 44t124.5 15q12 0 41 -2t64 -11 t71.5 -29.5t65.5 -57.5q16 -20 22.5 -33.5t14.5 -34.5q16 18 43 47t66.5 54.5t94 44t124.5 18.5q133 0 230 -74.5t132 -199.5q10 -39 12 -72t2 -72h-684q4 -37 9.5 -69.5t19.5 -67.5q35 -84 113 -134t170 -50q33 0 98.5 17t130.5 79q14 14 24.5 27.5t14.5 17.5l70 -57 q-6 -8 -17.5 -23.5t-30.5 -34.5q-14 -14 -39.5 -34.5t-62.5 -39t-83 -31.5t-103 -13q-18 0 -50 3t-71 15t-81 34.5t-81 61.5q-10 10 -23.5 26.5t-33.5 41.5q-2 0 -15.5 -20.5t-25.5 -35.5q-12 -14 -34 -35.5t-55.5 -42t-76.5 -36t-98 -15.5q-20 0 -78 9.5t-113 50.5 t-84 104.5t-29 130.5zM164 276q0 -100 63.5 -152t159.5 -52q6 0 23.5 1t35.5 5t45 15t51.5 34t43 58.5t18.5 88.5q0 43 -13 83t-48 69q-14 12 -25.5 17.5t-15.5 9.5q-57 30 -125 26q-92 -4 -152.5 -54t-60.5 -149zM709 477l579 2q-4 23 -4 31t-4 20q-4 14 -20.5 51t-51.5 70 q-20 18 -73.5 46t-130.5 28q-12 0 -37 -2t-58 -12q-43 -12 -75.5 -34t-54 -46.5t-35 -47t-19.5 -38.5q-8 -16 -10 -26.5t-6 -41.5z" />
<glyph unicode="&#xe7;" horiz-adv-x="811" d="M63 397q0 23 6.5 73t32.5 110q53 115 158 178t229 63q51 0 95.5 -10t78 -24.5t58 -30t41.5 -25.5l-60 -86q-12 10 -32.5 24.5t-48 29t-63.5 23.5t-79 9q-29 0 -79 -9t-105 -54q-16 -12 -37.5 -35t-42 -56.5t-34 -77.5t-13.5 -100q0 -49 9 -84.5t18 -52.5 q27 -63 67.5 -101t83.5 -58.5t82 -26.5t59 -6q23 0 78.5 10t110.5 51q16 14 28.5 25.5t34.5 40.5l72 -66q-12 -14 -24.5 -27.5t-28.5 -25.5q-14 -12 -39 -28.5t-58.5 -33t-77.5 -28t-96 -11.5q-59 0 -102 11.5t-63 21.5q-117 49 -188 154.5t-71 232.5zM348 -272l150 249 l88 -63l-187 -221z" />
<glyph unicode="&#xe8;" horiz-adv-x="937" d="M72 410q0 16 4 58t20 89q43 123 146.5 190.5t232.5 67.5q125 0 226.5 -66.5t142.5 -185.5q16 -47 19 -85t3 -85h-702q2 -14 7 -52t22 -81q39 -90 115.5 -138t172.5 -48q59 0 105.5 15t80 38t57.5 47.5t36 40.5l71 -57q-16 -23 -43.5 -53.5t-69.5 -58.5t-98.5 -48.5 t-132.5 -20.5q-88 0 -163.5 29t-135.5 92q-16 16 -36.5 45t-38 68t-29.5 89t-12 110zM176 479h596q-4 35 -14 67t-29 62q-12 16 -31.5 38t-50.5 40.5t-73 30.5t-95 12q-92 0 -170 -44t-112 -130q-4 -12 -10.5 -29.5t-10.5 -46.5zM279 1130l96 78l213 -288l-51 -41z" />
<glyph unicode="&#xe9;" horiz-adv-x="937" d="M72 410q0 16 4 58t20 89q43 123 146.5 190.5t232.5 67.5q125 0 226.5 -66.5t142.5 -185.5q16 -47 19 -85t3 -85h-702q2 -14 7 -52t22 -81q39 -90 115.5 -138t172.5 -48q59 0 105.5 15t80 38t57.5 47.5t36 40.5l71 -57q-16 -23 -43.5 -53.5t-69.5 -58.5t-98.5 -48.5 t-132.5 -20.5q-88 0 -163.5 29t-135.5 92q-16 16 -36.5 45t-38 68t-29.5 89t-12 110zM176 479h596q-4 35 -14 67t-29 62q-12 16 -31.5 38t-50.5 40.5t-73 30.5t-95 12q-92 0 -170 -44t-112 -130q-4 -12 -10.5 -29.5t-10.5 -46.5zM367 920l211 288l98 -75l-258 -254z" />
<glyph unicode="&#xea;" horiz-adv-x="937" d="M72 410q0 16 4 58t20 89q43 123 146.5 190.5t232.5 67.5q125 0 226.5 -66.5t142.5 -185.5q16 -47 19 -85t3 -85h-702q2 -14 7 -52t22 -81q39 -90 115.5 -138t172.5 -48q59 0 105.5 15t80 38t57.5 47.5t36 40.5l71 -57q-16 -23 -43.5 -53.5t-69.5 -58.5t-98.5 -48.5 t-132.5 -20.5q-88 0 -163.5 29t-135.5 92q-16 16 -36.5 45t-38 68t-29.5 89t-12 110zM176 479h596q-4 35 -14 67t-29 62q-12 16 -31.5 38t-50.5 40.5t-73 30.5t-95 12q-92 0 -170 -44t-112 -130q-4 -12 -10.5 -29.5t-10.5 -46.5zM244 909l184 297h107l188 -297l-68 -43 l-174 254l-172 -256z" />
<glyph unicode="&#xeb;" horiz-adv-x="937" d="M72 410q0 16 4 58t20 89q43 123 146.5 190.5t232.5 67.5q125 0 226.5 -66.5t142.5 -185.5q16 -47 19 -85t3 -85h-702q2 -14 7 -52t22 -81q39 -90 115.5 -138t172.5 -48q59 0 105.5 15t80 38t57.5 47.5t36 40.5l71 -57q-16 -23 -43.5 -53.5t-69.5 -58.5t-98.5 -48.5 t-132.5 -20.5q-88 0 -163.5 29t-135.5 92q-16 16 -36.5 45t-38 68t-29.5 89t-12 110zM176 479h596q-4 35 -14 67t-29 62q-12 16 -31.5 38t-50.5 40.5t-73 30.5t-95 12q-92 0 -170 -44t-112 -130q-4 -12 -10.5 -29.5t-10.5 -46.5zM252 1042q0 35 23.5 57.5t58.5 22.5 t57.5 -23.5t22.5 -58.5t-24.5 -57t-57.5 -22q-23 0 -37.5 9t-20.5 15q-23 23 -22 57zM528 1042q0 35 23.5 57.5t58.5 22.5t57.5 -23.5t22.5 -58.5t-24.5 -57t-57.5 -22q-23 0 -37 9t-20 15q-23 23 -23 57z" />
<glyph unicode="&#xec;" horiz-adv-x="342" d="M-31 1130l97 78l213 -288l-52 -41zM111 0q6 119 6 238v239q0 156 -6 309h114q-2 -63 -3 -125.5t-1 -125.5v-273q0 -131 6 -262h-116z" />
<glyph unicode="&#xed;" horiz-adv-x="342" d="M57 920l211 288l99 -75l-258 -254zM111 0q6 119 6 238v239q0 156 -6 309h114q-2 -63 -3 -125.5t-1 -125.5v-273q0 -131 6 -262h-116z" />
<glyph unicode="&#xee;" horiz-adv-x="342" d="M-66 909l183 297h108l189 -297l-68 -43l-174 254l-172 -256zM111 0q6 119 6 238v239q0 156 -6 309h114q-2 -63 -3 -125.5t-1 -125.5v-273q0 -131 6 -262h-116z" />
<glyph unicode="&#xef;" horiz-adv-x="342" d="M-57 1042q0 35 23.5 57.5t58.5 22.5q33 0 56 -23.5t23 -58.5t-24.5 -57t-56.5 -22q-23 0 -37.5 9t-20.5 15q-23 23 -22 57zM111 0q6 119 6 238v239q0 156 -6 309h114q-2 -63 -3 -125.5t-1 -125.5v-273q0 -131 6 -262h-116zM219 1042q0 35 23.5 57.5t58.5 22.5t57.5 -23.5 t22.5 -58.5t-24.5 -57t-57.5 -22q-23 0 -37 9t-20 15q-23 23 -23 57z" />
<glyph unicode="&#xf1;" horiz-adv-x="894" d="M111 0q2 66 3 128t1 126v307q0 35 -1 72t-3 74q23 12 43 24t43 23q35 16 101.5 36.5t158.5 20.5q10 0 37.5 -1t60.5 -9q6 -2 32.5 -9.5t58.5 -25.5t62.5 -49t49.5 -80q16 -43 18 -96.5t2 -147.5v-162q2 -70 3 -125t3 -106h-112q2 47 4 97t2 112v246q0 35 -2 68.5 t-10.5 64t-26.5 57.5t-53 47q-23 14 -52.5 23.5t-72.5 9.5q-94 0 -150.5 -24.5t-99.5 -49.5q2 -51 3 -100t1 -98v-222v-115.5t4 -115.5h-108zM188 1006q35 70 67 99.5t73 29.5t78.5 -17.5t70.5 -32.5q16 -8 35.5 -17t36.5 -9q25 0 41 19.5t37 60.5l78 -33q-8 -16 -13 -27 q-27 -63 -63.5 -83.5t-71.5 -20.5q-41 0 -76 17.5t-73 33.5q-4 2 -30 12.5t-44 10.5q-10 0 -16.5 -4.5t-10.5 -6.5q-23 -18 -32 -39.5t-13 -25.5z" />
<glyph unicode="&#xf2;" horiz-adv-x="980" d="M63 399q0 16 4.5 52t20.5 81q20 63 60 116.5t93.5 91.5t116 58.5t129.5 20.5q18 0 48 -3t67 -14t77 -30.5t81 -52.5q49 -43 78.5 -90t45 -91t20.5 -82t5 -59q0 -25 -6 -70.5t-33 -103.5q-51 -113 -155.5 -179.5t-227.5 -66.5q-84 0 -162 33t-137 92q-14 14 -35.5 40 t-41 64t-34 86t-14.5 107zM162 397q0 -16 3 -42.5t12 -58.5t28.5 -66.5t50.5 -67.5q10 -10 31.5 -26.5t50.5 -32t66.5 -26.5t82.5 -11q33 0 97.5 15t130.5 79q12 12 28.5 32.5t32 51t26.5 69.5t11 86q0 68 -25.5 128.5t-69.5 105.5t-103.5 71.5t-127.5 26.5q-70 0 -139 -33 q-86 -41 -136 -121.5t-50 -179.5zM291 1130l94 78l213 -288l-49 -41z" />
<glyph unicode="&#xf3;" horiz-adv-x="980" d="M63 399q0 16 4.5 52t20.5 81q20 63 60 116.5t93.5 91.5t116 58.5t129.5 20.5q18 0 48 -3t67 -14t77 -30.5t81 -52.5q49 -43 78.5 -90t45 -91t20.5 -82t5 -59q0 -25 -6 -70.5t-33 -103.5q-51 -113 -155.5 -179.5t-227.5 -66.5q-84 0 -162 33t-137 92q-14 14 -35.5 40 t-41 64t-34 86t-14.5 107zM162 397q0 -16 3 -42.5t12 -58.5t28.5 -66.5t50.5 -67.5q10 -10 31.5 -26.5t50.5 -32t66.5 -26.5t82.5 -11q33 0 97.5 15t130.5 79q12 12 28.5 32.5t32 51t26.5 69.5t11 86q0 68 -25.5 128.5t-69.5 105.5t-103.5 71.5t-127.5 26.5q-70 0 -139 -33 q-86 -41 -136 -121.5t-50 -179.5zM377 920l211 288l98 -75l-258 -254z" />
<glyph unicode="&#xf4;" horiz-adv-x="980" d="M63 399q0 16 4.5 52t20.5 81q20 63 60 116.5t93.5 91.5t116 58.5t129.5 20.5q18 0 48 -3t67 -14t77 -30.5t81 -52.5q49 -43 78.5 -90t45 -91t20.5 -82t5 -59q0 -25 -6 -70.5t-33 -103.5q-51 -113 -155.5 -179.5t-227.5 -66.5q-84 0 -162 33t-137 92q-14 14 -35.5 40 t-41 64t-34 86t-14.5 107zM162 397q0 -16 3 -42.5t12 -58.5t28.5 -66.5t50.5 -67.5q10 -10 31.5 -26.5t50.5 -32t66.5 -26.5t82.5 -11q33 0 97.5 15t130.5 79q12 12 28.5 32.5t32 51t26.5 69.5t11 86q0 68 -25.5 128.5t-69.5 105.5t-103.5 71.5t-127.5 26.5q-70 0 -139 -33 q-86 -41 -136 -121.5t-50 -179.5zM254 909l184 297h107l188 -297l-65 -43l-176 254l-173 -256z" />
<glyph unicode="&#xf5;" horiz-adv-x="980" d="M63 399q0 16 4.5 52t20.5 81q20 63 60 116.5t93.5 91.5t116 58.5t129.5 20.5q18 0 48 -3t67 -14t77 -30.5t81 -52.5q49 -43 78.5 -90t45 -91t20.5 -82t5 -59q0 -25 -6 -70.5t-33 -103.5q-51 -113 -155.5 -179.5t-227.5 -66.5q-84 0 -162 33t-137 92q-14 14 -35.5 40 t-41 64t-34 86t-14.5 107zM162 397q0 -16 3 -42.5t12 -58.5t28.5 -66.5t50.5 -67.5q10 -10 31.5 -26.5t50.5 -32t66.5 -26.5t82.5 -11q33 0 97.5 15t130.5 79q12 12 28.5 32.5t32 51t26.5 69.5t11 86q0 68 -25.5 128.5t-69.5 105.5t-103.5 71.5t-127.5 26.5q-70 0 -139 -33 q-86 -41 -136 -121.5t-50 -179.5zM231 1006q35 70 66 99.5t74 29.5q41 0 78.5 -17.5t70.5 -32.5q16 -8 35.5 -17t36.5 -9q23 0 40 19.5t38 60.5l75 -33q-2 -6 -4 -12.5t-6 -14.5q-29 -63 -64.5 -83.5t-70.5 -20.5q-41 0 -76 17.5t-73 33.5q-4 2 -30 12.5t-44 10.5 q-10 0 -17.5 -4.5t-11.5 -6.5q-23 -18 -31 -39.5t-12 -25.5z" />
<glyph unicode="&#xf6;" horiz-adv-x="980" d="M63 399q0 16 4.5 52t20.5 81q20 63 60 116.5t93.5 91.5t116 58.5t129.5 20.5q18 0 48 -3t67 -14t77 -30.5t81 -52.5q49 -43 78.5 -90t45 -91t20.5 -82t5 -59q0 -25 -6 -70.5t-33 -103.5q-51 -113 -155.5 -179.5t-227.5 -66.5q-84 0 -162 33t-137 92q-14 14 -35.5 40 t-41 64t-34 86t-14.5 107zM162 397q0 -16 3 -42.5t12 -58.5t28.5 -66.5t50.5 -67.5q10 -10 31.5 -26.5t50.5 -32t66.5 -26.5t82.5 -11q33 0 97.5 15t130.5 79q12 12 28.5 32.5t32 51t26.5 69.5t11 86q0 68 -25.5 128.5t-69.5 105.5t-103.5 71.5t-127.5 26.5q-70 0 -139 -33 q-86 -41 -136 -121.5t-50 -179.5zM258 1042q0 35 23.5 57.5t56.5 22.5q35 0 58.5 -23.5t23.5 -58.5t-24.5 -57t-57.5 -22q-23 0 -38 9t-19 15q-23 23 -23 57zM535 1042q0 35 23.5 57.5t57.5 22.5q33 0 56.5 -23.5t23.5 -58.5t-24.5 -57t-57.5 -22q-23 0 -37 9t-20 15 q-23 23 -22 57z" />
<glyph unicode="&#xf7;" horiz-adv-x="1366" d="M0 565v62h1366v-62h-1366zM625 373q0 29 19.5 46t43.5 17q29 0 47.5 -18t16.5 -47q0 -12 -12.5 -36t-51.5 -24t-51 23.5t-12 38.5zM625 819q0 29 19.5 46.5t43.5 17.5q29 -2 47.5 -19.5t16.5 -46.5q0 -14 -12.5 -37.5t-51.5 -23.5q-39 2 -51 25.5t-12 37.5z" />
<glyph unicode="&#xf8;" horiz-adv-x="980" d="M66 401q0 20 4 52t15 71t33.5 81t59.5 83q14 14 41 38t66 44.5t90 35.5t112 15q86 0 148.5 -25.5t87.5 -41.5q10 -6 17.5 -13.5t17.5 -13.5l94 94l61 -59l-94 -94q8 -10 19.5 -27.5t17.5 -30.5q12 -20 33.5 -78.5t21.5 -136.5q0 -14 -2 -39.5t-10 -56.5t-21.5 -66.5 t-37.5 -70.5q-14 -20 -43 -51t-72 -61t-102.5 -51.5t-133.5 -21.5q-53 0 -96 10.5t-76.5 26t-58.5 31.5t-39 29l-92 -92l-59 59l92 92q-10 16 -20.5 29.5t-18.5 30.5q-14 25 -34.5 78t-20.5 130zM164 403q0 -14 2 -35.5t8 -48t19.5 -56.5t35.5 -60l461 459q-25 18 -75 43.5 t-134 25.5q-31 0 -84 -11t-112 -63q-41 -35 -64.5 -70.5t-36 -70.5t-16.5 -64.5t-4 -48.5zM289 139q29 -20 73 -44.5t125 -24.5q49 0 81 8t50 18q43 18 80 50t65 71t43 84t15 92q0 80 -27.5 132.5t-43.5 74.5z" />
<glyph unicode="&#xf9;" horiz-adv-x="894" d="M96 788h115q-4 -59 -6 -117.5t-2 -117.5v-191q0 -49 4 -105t33 -99q14 -20 30.5 -32.5t24.5 -16.5q31 -18 66.5 -27.5t70.5 -9.5q25 0 74 8t104 41q16 10 30.5 21.5t31.5 21.5q-2 53 -3 103t-3 102v168v124.5t-4 124.5h114q-6 -135 -6 -274q-2 -141 2 -242.5t14 -156.5 q8 -35 19.5 -64t15.5 -39l-96 -33q-10 23 -17.5 42.5t-19.5 60.5q-16 -12 -39.5 -30.5t-55.5 -34t-74 -27t-97 -11.5q-61 0 -128 20.5t-112 65.5q-10 10 -23.5 26.5t-25.5 45.5q-16 37 -23.5 76t-9.5 115v264q0 49 -1 99t-3 99zM248 1130l94 78l213 -288l-49 -41z" />
<glyph unicode="&#xfa;" horiz-adv-x="894" d="M96 788h115q-4 -59 -6 -117.5t-2 -117.5v-191q0 -49 4 -105t33 -99q14 -20 30.5 -32.5t24.5 -16.5q31 -18 66.5 -27.5t70.5 -9.5q25 0 74 8t104 41q16 10 30.5 21.5t31.5 21.5q-2 53 -3 103t-3 102v168v124.5t-4 124.5h114q-6 -135 -6 -274q-2 -141 2 -242.5t14 -156.5 q8 -35 19.5 -64t15.5 -39l-96 -33q-10 23 -17.5 42.5t-19.5 60.5q-16 -12 -39.5 -30.5t-55.5 -34t-74 -27t-97 -11.5q-61 0 -128 20.5t-112 65.5q-10 10 -23.5 26.5t-25.5 45.5q-16 37 -23.5 76t-9.5 115v264q0 49 -1 99t-3 99zM334 920l211 288l98 -75l-258 -254z" />
<glyph unicode="&#xfb;" horiz-adv-x="894" d="M96 788h115q-4 -59 -6 -117.5t-2 -117.5v-191q0 -49 4 -105t33 -99q14 -20 30.5 -32.5t24.5 -16.5q31 -18 66.5 -27.5t70.5 -9.5q25 0 74 8t104 41q16 10 30.5 21.5t31.5 21.5q-2 53 -3 103t-3 102v168v124.5t-4 124.5h114q-6 -135 -6 -274q-2 -141 2 -242.5t14 -156.5 q8 -35 19.5 -64t15.5 -39l-96 -33q-10 23 -17.5 42.5t-19.5 60.5q-16 -12 -39.5 -30.5t-55.5 -34t-74 -27t-97 -11.5q-61 0 -128 20.5t-112 65.5q-10 10 -23.5 26.5t-25.5 45.5q-16 37 -23.5 76t-9.5 115v264q0 49 -1 99t-3 99zM211 909l184 297h107l188 -297l-65 -43 l-176 254l-173 -256z" />
<glyph unicode="&#xfc;" horiz-adv-x="894" d="M96 788h115q-4 -59 -6 -117.5t-2 -117.5v-191q0 -49 4 -105t33 -99q14 -20 30.5 -32.5t24.5 -16.5q31 -18 66.5 -27.5t70.5 -9.5q25 0 74 8t104 41q16 10 30.5 21.5t31.5 21.5q-2 53 -3 103t-3 102v168v124.5t-4 124.5h114q-6 -135 -6 -274q-2 -141 2 -242.5t14 -156.5 q8 -35 19.5 -64t15.5 -39l-96 -33q-10 23 -17.5 42.5t-19.5 60.5q-16 -12 -39.5 -30.5t-55.5 -34t-74 -27t-97 -11.5q-61 0 -128 20.5t-112 65.5q-10 10 -23.5 26.5t-25.5 45.5q-16 37 -23.5 76t-9.5 115v264q0 49 -1 99t-3 99zM217 1042q0 35 23.5 57.5t58.5 22.5 t57.5 -23.5t22.5 -58.5t-23.5 -57t-58.5 -22q-23 0 -37 9t-20 15q-23 23 -23 57zM494 1042q2 35 24.5 57.5t56.5 22.5q35 0 58.5 -23.5t23.5 -58.5q-2 -35 -25.5 -57t-56.5 -22q-23 0 -38 9t-19 15q-25 20 -24 57z" />
<glyph unicode="&#xff;" horiz-adv-x="811" d="M-6 760l104 51q23 -43 43.5 -85t42.5 -85q27 -49 53.5 -98t53.5 -101q39 -72 77 -144.5t74 -145.5l154 358q35 82 63.5 154.5t57.5 142.5l96 -39q-23 -49 -45.5 -98t-44.5 -99q-20 -41 -37.5 -84t-36.5 -84l-102 -241q-31 -72 -60.5 -143.5t-62.5 -141.5 q-31 -68 -55.5 -112t-53.5 -72q-27 -27 -68.5 -51.5t-107.5 -24.5q-29 0 -56.5 6t-80.5 25l29 88q29 -12 50 -18.5t50 -6.5q66 0 99.5 31t52.5 59q20 31 46.5 90.5t59.5 137.5l-262 491q-33 61 -65.5 120.5t-67.5 119.5zM135 1042q0 35 23.5 57.5t56.5 22.5q35 0 58.5 -23.5 t23.5 -58.5t-24.5 -57t-57.5 -22q-23 0 -38 9t-19 15q-23 23 -23 57zM412 1042q0 35 23.5 57.5t56.5 22.5q35 0 58 -23.5t23 -58.5t-24.5 -57t-56.5 -22q-23 0 -38.5 9t-19.5 15q-23 23 -22 57z" />
<glyph unicode="&#x152;" horiz-adv-x="1961" d="M78 725q0 31 4 77t18.5 103.5t43 122t75.5 129.5q29 41 79 94.5t125 100.5t176 79.5t235 32.5h43t43 -4q27 -2 52 -5t52 -5q29 -4 58.5 -4h58.5h755l-34 -107l-723 11v-707l753 2l-37 -100h-716v-451l798 12l-36 -106h-836q-33 -4 -65.5 -7t-65.5 -7q-23 -2 -45.5 -3 t-44.5 -1q-31 0 -79 3t-107.5 15t-127 39t-135.5 74q-150 104 -233.5 266t-83.5 346zM184 721q0 -31 4.5 -77t20.5 -100.5t46 -115.5t83 -123q66 -78 138.5 -123t140 -68.5t125 -30.5t94.5 -7q57 0 98 7t94 19v1233q-27 8 -75 19.5t-119 11.5q-29 0 -76 -4t-104.5 -19.5 t-121 -47t-124.5 -85.5q-104 -92 -164 -222t-60 -267z" />
<glyph unicode="&#x153;" horiz-adv-x="1662" d="M68 403q0 57 11 102.5t28.5 80.5t37 60.5t35.5 41.5q16 18 43 41t65 42.5t87 33.5t114 14q37 0 103.5 -12t142.5 -70q16 -12 28.5 -23.5t27.5 -25.5q23 -27 36 -48.5t21 -31.5q6 10 27.5 38t50.5 56q14 14 40.5 33t62.5 36t82 29.5t101 12.5q12 0 37 -2t56.5 -8 t66.5 -20.5t70 -39.5q51 -35 87 -89t54 -113q8 -29 11 -58.5t5 -89.5h-700q2 -29 8 -75t45 -105q31 -47 68 -75.5t73.5 -43t68.5 -18.5t52 -4q84 0 140.5 30.5t79.5 49.5q18 16 31.5 31.5t29.5 31.5l70 -57q-10 -10 -17.5 -20.5t-15.5 -20.5q-16 -18 -43 -42t-65 -45.5 t-90 -35.5t-115 -14q-82 0 -159 28.5t-136 87.5q-29 29 -48.5 58.5t-27.5 40.5q-4 -4 -22.5 -32t-39.5 -50q-16 -16 -41.5 -40t-64.5 -44.5t-88 -34.5t-111 -14q-27 0 -65.5 5t-82.5 22.5t-91 51t-90 88.5q-25 31 -54.5 93.5t-29.5 162.5zM162 399q0 -16 3 -42.5t13 -58.5 t28.5 -66.5t51.5 -67.5q45 -47 104.5 -72.5t124.5 -25.5q14 0 40 3t56.5 13t64.5 27.5t65 48.5q47 47 73.5 111.5t26.5 129.5q0 66 -26.5 130.5t-73.5 111.5q-45 41 -104.5 66.5t-121.5 25.5q-16 0 -46.5 -4t-69.5 -20q-98 -37 -153.5 -121t-55.5 -189zM907 479h596 q-4 29 -10 53.5t-18 49.5q-37 72 -111 108.5t-152 36.5q-68 0 -118 -19.5t-84.5 -48t-56 -60.5t-29.5 -54q-6 -12 -9.5 -26.5t-7.5 -39.5z" />
<glyph unicode="&#x178;" horiz-adv-x="1067" d="M-2 1419l96 62q39 -66 79 -130.5t81 -127.5l166 -267q29 -47 57.5 -92t57.5 -92q27 41 51 80t51 78l158 252q23 33 43 64.5t41 66.5q27 41 51 81t49 81l84 -60l-481 -739v-198.5t2 -217.5q0 -131 6 -260h-121q2 41 3 81t1 81v516zM223 1702q2 39 29 65.5t65 26.5 q39 -2 65 -28.5t26 -65.5t-27 -64.5t-66 -25.5q-8 0 -27.5 4t-37.5 22q-16 18 -21.5 37t-5.5 29zM641 1702q0 39 26.5 65.5t65.5 26.5q41 -2 66.5 -28.5t25.5 -65.5t-27.5 -64.5t-64.5 -25.5q-8 0 -27.5 4t-37.5 22t-22.5 37t-4.5 29z" />
<glyph unicode="&#x2c6;" d="M-129 909l182 297h109l186 -297l-65 -43l-174 254l-172 -256z" />
<glyph unicode="&#x2dc;" d="M-152 1006q33 70 65 99.5t75 29.5q39 0 77.5 -17.5t69.5 -32.5q16 -8 35.5 -17t36.5 -9q25 0 41 19.5t37 60.5l77 -33q-8 -16 -10 -27q-29 -63 -64.5 -83.5t-70.5 -20.5q-43 0 -78 17.5t-73 33.5q-4 2 -29 12.5t-43 10.5q-10 0 -17.5 -4.5t-11.5 -6.5q-23 -18 -32 -39.5 t-11 -25.5z" />
<glyph unicode="&#x2000;" horiz-adv-x="949" />
<glyph unicode="&#x2001;" horiz-adv-x="1898" />
<glyph unicode="&#x2002;" horiz-adv-x="949" />
<glyph unicode="&#x2003;" horiz-adv-x="1898" />
<glyph unicode="&#x2004;" horiz-adv-x="632" />
<glyph unicode="&#x2005;" horiz-adv-x="474" />
<glyph unicode="&#x2006;" horiz-adv-x="316" />
<glyph unicode="&#x2007;" horiz-adv-x="316" />
<glyph unicode="&#x2008;" horiz-adv-x="237" />
<glyph unicode="&#x2009;" horiz-adv-x="379" />
<glyph unicode="&#x200a;" horiz-adv-x="105" />
<glyph unicode="&#x2010;" horiz-adv-x="598" d="M59 311v109h449v-109h-449z" />
<glyph unicode="&#x2011;" horiz-adv-x="598" d="M59 311v109h449v-109h-449z" />
<glyph unicode="&#x2012;" horiz-adv-x="598" d="M59 311v109h449v-109h-449z" />
<glyph unicode="&#x2013;" horiz-adv-x="1110" d="M63 311v95h988v-95h-988z" />
<glyph unicode="&#x2014;" horiz-adv-x="1366" d="M2 565v62h1360v-62h-1360z" />
<glyph unicode="&#x2018;" horiz-adv-x="382" d="M61 1051l177 409l84 -30l-129 -429z" />
<glyph unicode="&#x2019;" horiz-adv-x="382" d="M59 1038l142 422l129 -51l-189 -405z" />
<glyph unicode="&#x201a;" horiz-adv-x="382" d="M33 -211l137 426l131 -49l-182 -410z" />
<glyph unicode="&#x201c;" horiz-adv-x="641" d="M86 1055l182 407l78 -30l-133 -424zM336 1053l182 407l78 -30l-137 -424z" />
<glyph unicode="&#x201d;" horiz-adv-x="641" d="M66 1038l137 422l125 -47l-187 -405zM315 1034l136 426l124 -49l-182 -405z" />
<glyph unicode="&#x201e;" horiz-adv-x="641" d="M45 -211l139 422l125 -47l-184 -408zM299 -215l133 424l127 -47l-184 -408z" />
<glyph unicode="&#x2022;" horiz-adv-x="681" d="M129 723q0 43 16.5 81t45 66.5t66.5 46t83 17.5q33 0 57.5 -7t36.5 -12q59 -27 89 -80t32 -112q0 -27 -4 -43t-8 -29q-23 -68 -78 -103.5t-123 -35.5q-43 0 -82 16.5t-68.5 44t-46 66.5t-16.5 84z" />
<glyph unicode="&#x2026;" horiz-adv-x="2048" d="M274 55q0 29 19.5 47.5t48.5 18.5q20 0 33.5 -8.5t20.5 -19.5t9.5 -22.5t2.5 -17.5q0 -29 -18.5 -47t-47.5 -18t-48.5 19.5t-19.5 47.5zM958 55q0 29 19.5 47.5t48.5 18.5t47.5 -19.5t16.5 -48.5q0 -29 -18.5 -47t-47.5 -18t-47.5 19.5t-18.5 47.5zM1640 55 q0 29 19.5 47.5t48.5 18.5q20 0 33.5 -8.5t20.5 -19.5t9.5 -22.5t2.5 -17.5q-2 -29 -20.5 -47t-47.5 -18t-47.5 19.5t-18.5 47.5z" />
<glyph unicode="&#x202f;" horiz-adv-x="379" />
<glyph unicode="&#x205f;" horiz-adv-x="474" />
<glyph unicode="&#x2122;" horiz-adv-x="1406" d="M70 1384v62h516v-62h-226v-618h-63v618h-227zM643 766v680h102l187 -586l186 586h103v-680h-64v620q-10 -31 -19.5 -61.5t-19.5 -58.5l-162 -500h-55l-158 500q-10 29 -19 59.5t-19 60.5q-2 -35 -1 -68.5t1 -68.5v-483h-62z" />
<glyph unicode="&#x25fc;" horiz-adv-x="819" d="M0 0v819h819v-819h-819z" />
</font>
</defs>
</svg>
